<?xml version="1.0" encoding="UTF-8"?>
<!DOCTYPE svg PUBLIC "-//W3C//DTD SVG 1.1//EN" "http://www.w3.org/Graphics/SVG/1.1/DTD/svg11.dtd">
<!-- Creator: CorelDRAW -->
<svg xmlns="http://www.w3.org/2000/svg" xml:space="preserve" width="1.12015in" height="1.18516in" style="shape-rendering:geometricPrecision; text-rendering:geometricPrecision; image-rendering:optimizeQuality; fill-rule:evenodd; clip-rule:evenodd"
viewBox="0 0 0.111047 0.117492"
 <defs>
  <style type="text/css">
   <![CDATA[
    .fil2 {fill:white}
    .fil0 {fill:#1F1A17;fill-rule:nonzero;fill-opacity:0.101961}
    .fil1 {fill:url(#id0);fill-rule:nonzero}
   ]]>
  </style>
  <linearGradient id="id0" gradientUnits="userSpaceOnUse" x1="-3.90297e-007" y1="0.0559886" x2="0.109927" y2="0.0559886">
   <stop offset="0" style="stop-color:#F8C300"/>
   <stop offset="1" style="stop-color:#E77817"/>
  </linearGradient>
 </defs>
 <g id="图层_x0020_18">
  <metadata id="CorelCorpID_0Corel-Layer"/>
  <path class="fil0" d="M0.0560799 0.0010218c0.0151759,0 0.0289187,0.00615382 0.0388658,0.0161013 0.00994712,0.00994712 0.0161013,0.0236891 0.0161013,0.038865 0,0.0151759 -0.00615421,0.0289187 -0.0161013,0.0388658 -0.00994712,0.00994712 -0.0236899,0.0161013 -0.0388658,0.0161013 -0.0151759,0 -0.0289183,-0.00615421 -0.0388654,-0.0161013 -0.00994712,-0.00994712 -0.0161013,-0.0236899 -0.0161013,-0.0388658 0,-0.0151759 0.00615421,-0.0289179 0.0161013,-0.038865 0.00994712,-0.00994751 0.0236895,-0.0161013 0.0388654,-0.0161013zm0.0330898 0.0218769c-0.00846867,-0.00846867 -0.0201694,-0.0137084 -0.0330898,-0.0137084 -0.0129204,0 -0.0246204,0.00523974 -0.0330894,0.0137084 -0.00846906,0.00846906 -0.0137084,0.020169 -0.0137084,0.0330894 0,0.0129208 0.00523935,0.0246211 0.0137084,0.0330898 0.00846906,0.00846906 0.020169,0.0137084 0.0330894,0.0137084 0.0129204,0 0.0246211,-0.00523935 0.0330898,-0.0137084 0.00846906,-0.00846867 0.0137084,-0.020169 0.0137084,-0.0330898 0,-0.0129204 -0.00523935,-0.0246204 -0.0137084,-0.0330894z"/>
  <path class="fil1" d="M0.0559882 0.101765c0.0028199,0 0.00510626,0.00228636 0.00510626,0.00510626 0,0.0028199 -0.00228636,0.00510626 -0.00510626,0.00510626 -0.0154577,0 -0.029455,-0.00626857 -0.0395875,-0.0164007 -0.0101325,-0.0101325 -0.0164011,-0.0241305 -0.0164011,-0.0395883 0,-0.0154577 0.00626857,-0.029455 0.0164011,-0.0395875 0.0101325,-0.0101325 0.0241297,-0.0164011 0.0395875,-0.0164011 0.01215,0 0.0234022,0.00387682 0.0325848,0.0104608 0.00941866,0.00675293 0.0166575,0.0163667 0.0204512,0.0275749 0.000903148,0.00266573 -0.000525731,0.0055594 -0.00319146,0.00646254 -0.00266534,0.000903148 -0.0055594,-0.000526121 -0.00646254,-0.00319146 -0.00309818,-0.00915404 -0.00902446,-0.0170166 -0.016741,-0.022549 -0.00750113,-0.0053783 -0.0167004,-0.00854517 -0.0266409,-0.00854517 -0.0126386,0 -0.0240833,0.00512539 -0.032367,0.0134091 -0.00828367,0.00828367 -0.0134091,0.0197284 -0.0134091,0.032367 0,0.012639 0.00512539,0.0240841 0.0134091,0.0323678 0.00828367,0.00828367 0.0197284,0.0134087 0.032367,0.0134087z"/>
  <path class="fil2" d="M0.0560803 0.0975345c0.00551022,0 0.00997873,0.00446851 0.00997873,0.00997834 0,0.00551022 -0.00446851,0.00997873 -0.00997873,0.00997873 -0.00550983,0 -0.00997834,-0.00446851 -0.00997834,-0.00997873 0,-0.00550983 0.00446851,-0.00997834 0.00997834,-0.00997834z"/>
 </g>
</svg>
