<?xml version="1.0" encoding="UTF-8"?>
<!-- Creator: CorelDRAW -->
<svg xmlns="http://www.w3.org/2000/svg" xml:space="preserve" width="0.0508031in" height="0.0579803in" style="shape-rendering:geometricPrecision; text-rendering:geometricPrecision; image-rendering:optimizeQuality; fill-rule:evenodd; clip-rule:evenodd"
viewBox="0 0 0.00194818 0.00222341"
 xmlns:xlink="http://www.w3.org/1999/xlink">
  <defs>
    <style type="text/css">
      .fil0 {
        fill: white;
        fill-rule: nonzero;
      }
    </style>
  </defs>

  <metadata id="CorelCorpID_0Corel-Layer"/>
  <path class="fil0" d="M0.000974092 0c0.000180415,0 0.000344223,7.33739e-005 0.000462437,0.000191738 0.000118365,0.000118063 0.000191437,0.000281569 0.000191437,0.000462286 0,0.000180415 -7.3072e-005,0.000344072 -0.000191437,0.000462135l-3.0195e-007 0c-3.74418e-005,3.75928e-005 -7.94129e-005,7.05054e-005 -0.000125158,9.79829e-005 0.000203666,0.00013784 0.000418956,0.000423485 0.000637115,0.00092895l-0.000186605 8.03188e-005c-0.000810586,-0.00187768 -0.00157195,-1.1927e-005 -0.00157407,-6.79388e-006l-0.000187511 -7.69973e-005c1.50975e-006,-3.47243e-006 0.000263452,-0.000644815 0.000657044,-0.000913853 -5.34452e-005,-2.95911e-005 -0.00010221,-6.64291e-005 -0.000145238,-0.000109608 -0.000118214,-0.000118063 -0.000191437,-0.00028172 -0.000191437,-0.000462135 0,-0.000180264 7.33739e-005,-0.00034362 0.000191437,-0.000461833 0.000118516,-0.000118817 0.000282324,-0.000192191 0.000462286,-0.000192191zm0.000318709 0.000335316c-8.13756e-005,-8.15266e-005 -0.000194154,-0.000131952 -0.000318709,-0.000131952 -0.000124555,0 -0.000237333,5.02747e-005 -0.000318558,0.00013165 -8.13756e-005,8.15266e-005 -0.000131952,0.000194305 -0.000131952,0.000319011 0,0.000124102 5.05767e-005,0.000237031 0.000131952,0.000318558 8.15266e-005,8.15266e-005 0.000194305,0.000132103 0.000318558,0.000132103 0.000124706,0 0.000237635,-5.04257e-005 0.00031886,-0.000131801l-1.50975e-007 -3.0195e-007c8.13756e-005,-8.15266e-005 0.000132103,-0.000194456 0.000132103,-0.000318558 0,-0.000124404 -5.08786e-005,-0.000237182 -0.000132103,-0.000318709z"/>

</svg>
