<?xml version="1.0" encoding="UTF-8"?>
<!DOCTYPE svg PUBLIC "-//W3C//DTD SVG 1.1//EN" "http://www.w3.org/Graphics/SVG/1.1/DTD/svg11.dtd">
<!-- Creator: CorelDRAW -->
<svg xmlns="http://www.w3.org/2000/svg" xml:space="preserve" width="0.25735in" height="0.266669in" style="shape-rendering:geometricPrecision; text-rendering:geometricPrecision; image-rendering:optimizeQuality; fill-rule:evenodd; clip-rule:evenodd"
viewBox="0 0 0.0419128 0.0434305"
 xmlns:xlink="http://www.w3.org/1999/xlink">
 <defs>
  <style type="text/css">
   <![CDATA[
    .fil1 {fill:white}
    .fil0 {fill:url(#id1)}
    .fil2 {fill:url(#id2)}
   ]]>
  </style>
    <clipPath id="id0">
     <path d="M0.00426008 0.00616443l0.0333927 0 0 0.0372661 -0.0333927 0 0 -0.0372661z"/>
    </clipPath>
  <linearGradient id="id1" gradientUnits="userSpaceOnUse" x1="0.0421655" y1="0.0250469" x2="-0.000253271" y2="0.0168653">
   <stop offset="0" style="stop-color:#2FB1D5"/>
   <stop offset="1" style="stop-color:#3276D9"/>
  </linearGradient>
  <linearGradient id="id2" gradientUnits="userSpaceOnUse" xlink:href="#id1" x1="0.0232522" y1="0.0370706" x2="0.0186613" y2="0.0339191">
  </linearGradient>
 </defs>
 <g id="图层_x0020_18">
  <metadata id="CorelCorpID_0Corel-Layer"/>
  <path class="fil0" d="M0.0209561 0c0.0115722,0 0.0209567,0.00938514 0.0209567,0.0209561 0,0.0115722 -0.0093845,0.0209567 -0.0209567,0.0209567 -0.0115716,0 -0.0209561,-0.0093845 -0.0209561,-0.0209567 0,-0.011571 0.0093845,-0.0209561 0.0209561,-0.0209561z"/>
  <g id="_322172344">
   <g style="clip-path:url(#id0)">
    <image id="_322176184" transform="matrix(1 0 0 1 0.132935 -0.136967)" x="-0.128675" y="0.143132" width="0.0333927" height="0.0372661" xlink:href="icon_profile_on_Images\icon_profile_on_ImgID1.png"/>
   </g>
  </g>
  <path class="fil1" d="M0.0258369 0.0268769c4.29599e-005,3.91128e-005 8.6561e-005,7.43784e-005 0.000132086,0.000109644 0.0016453,0.00121314 0.0101642,0.00464929 0.0101661,0.00464929l0 0.00376829c-0.00381766,0.00400938 -0.00920689,0.00650875 -0.015179,0.00650875 -0.00597143,0 -0.0113607,-0.00249937 -0.0151783,-0.00650875l0 -0.00376829c1.92358e-006,0 0.00993336,-0.00447873 0.0101661,-0.00464929l0.000115415 -9.61789e-005 1.60298e-005 -2.30829e-005c0.000482818,-0.000627086 0.000848939,-0.00139267 0.00114581,-0.00268019 -0.00113876,-0.0012234 -0.002064,-0.00295205 -0.00257952,-0.00493077 -0.00052706,-0.000184664 -0.00103232,-0.000679023 -0.00130867,-0.00135099 -0.000421905,-0.00101886 -0.000159657,-0.00205566 0.000583485,-0.00231599 6.86076e-005,-2.43653e-005 0.000136574,-4.10363e-005 0.000209029,-4.93718e-005 -0.000958583,-0.00321302 0.000963713,-0.0054822 0.00175815,-0.00555273 0,-0.000727113 0.00108875,-0.00201591 0.0051289,-0.00197551 0.000616186,6.41193e-006 0.00117851,4.61659e-005 0.00169211,0.000116056 0,0 0.00208901,5.3219e-005 0.00342461,-0.000445629 -0.000196846,0.000489871 -0.000359068,0.000918188 -0.000713648,0.00126187 0.00225379,0.00119775 0.00270006,0.00328932 0.00289947,0.00469802 0.000101308,0.00070403 -3.84716e-005,0.00138049 -0.000261607,0.0019691 0.0006989,0.000293025 0.000937424,0.00130162 0.000526419,0.00229419 -0.000258401,0.00062901 -0.000722624,0.00110542 -0.0012125,0.00131445 -0.000483459,0.00206977 -0.00146769,0.00385164 -0.00268275,0.00508273 0.000188511,0.000979742 0.000456529,0.00189857 0.00115222,0.00257439z"/>
  <path class="fil2" d="M0.0219089 0.0304829l7.24548e-005 -0.000189793 0.00102334 -0.00273276 -0.00204797 0 -0.00204861 0 0.00102334 0.00273276 7.24548e-005 0.000189793 0.00190498 0zm8.46374e-005 0.000700182l7.82255e-005 0.00060721 0.00111375 0.00870291 6.41193e-007 0 -0.00111568 0.00146769 -0.00111375 0.00146897 -0.00111375 -0.00146897 -0.00111503 -0.00146705 -6.41193e-007 0 0 -6.41193e-007 0.00111439 -0.00870291 7.75843e-005 -0.00060721 0.00207426 0z"/>
 </g>
</svg>
