<?xml version="1.0" encoding="UTF-8"?>
<!DOCTYPE svg PUBLIC "-//W3C//DTD SVG 1.1//EN" "http://www.w3.org/Graphics/SVG/1.1/DTD/svg11.dtd">
<!-- Creator: CorelDRAW -->
<svg xmlns="http://www.w3.org/2000/svg" xml:space="preserve" width="0.152496in" height="0.110831in" style="shape-rendering:geometricPrecision; text-rendering:geometricPrecision; image-rendering:optimizeQuality; fill-rule:evenodd; clip-rule:evenodd"
viewBox="0 0 0.00645103 0.00468846"
 xmlns:xlink="http://www.w3.org/1999/xlink">
 <defs>
  <style type="text/css">
   <![CDATA[
    .fil0 {fill:url(#id0);fill-rule:nonzero}
   ]]>
  </style>
  <linearGradient id="id0" gradientUnits="userSpaceOnUse" x1="0.00650216" y1="0.00188481" x2="-5.11299e-005" y2="0.00280349">
   <stop offset="0" style="stop-color:#2FB1D5"/>
   <stop offset="1" style="stop-color:#3276D9"/>
  </linearGradient>
 </defs>
 <g id="图层_x0020_18">
  <metadata id="CorelCorpID_0Corel-Layer"/>
  <path class="fil0" d="M0.00375896 0.00117732l0.000430024 -0.000981128 -0.000845892 0 0.000415868 0.000981128zm-0.00152873 0.00351114l-0.00184134 -0.00447811 -0.000388887 0 0 -0.000210349 0.00481537 0 0 0.000210349 -0.000202021 0c-6.94501e-005,0 -0.000123411,1.51558e-005 -0.000164548,4.69662e-005 -3.99713e-005,3.04781e-005 -7.87767e-005,9.0435e-005 -0.000118748,0.000179704l-0.00045001 0.00100245 0.000760287 0.0017684 0.000922337 -0.00254284c2.11515e-005,-5.52936e-005 3.64738e-005,-0.000108089 4.82986e-005,-0.000157387 1.16583e-005,-4.94644e-005 1.74874e-005,-8.94357e-005 1.74874e-005,-0.000122245 0,-6.34544e-005 -1.63216e-005,-0.000109255 -5.04637e-005,-0.000135236 -3.28098e-005,-2.69806e-005 -9.39325e-005,-3.98047e-005 -0.000183368,-3.98047e-005l-0.00028313 0 0 -0.000210349 0.00133954 0 0 0.000210349 -0.000217344 0c-0.00010226,0 -0.0001857,2.93123e-005 -0.000249154,8.92692e-005 -6.34544e-005,5.99569e-005 -0.000130406,0.000186866 -0.000200856,0.000381892l-0.00145362 0.00400695 -0.000189197 0 -0.000826073 -0.00197641 -0.000895356 0.00197641 -0.000189197 0zm0.000575753 -0.00139133l0.000389054 -0.00086721 -0.000943655 -0.00223373 -0.00071915 0 0.00127375 0.00310094z"/>
 </g>
</svg>
