<?xml version="1.0" encoding="UTF-8"?>
<!DOCTYPE svg PUBLIC "-//W3C//DTD SVG 1.1//EN" "http://www.w3.org/Graphics/SVG/1.1/DTD/svg11.dtd">
<!-- Creator: CorelDRAW -->
<svg xmlns="http://www.w3.org/2000/svg" xml:space="preserve" width="0.260996in" height="0.2655in" style="shape-rendering:geometricPrecision; text-rendering:geometricPrecision; image-rendering:optimizeQuality; fill-rule:evenodd; clip-rule:evenodd"
viewBox="0 0 0.0834541 0.0848943"
 xmlns:xlink="http://www.w3.org/1999/xlink">
 <defs>
  <style type="text/css">
   <![CDATA[
    .fil4 {fill:none}
    .fil2 {fill:#1F1A17}
    .fil3 {fill:white}
    .fil5 {fill:#308FD7}
    .fil7 {fill:#3099D6}
    .fil6 {fill:white;fill-rule:nonzero}
    .fil1 {fill:url(#id4)}
    .fil0 {fill:url(#id5)}
   ]]>
  </style>
   <clipPath id="id0">
    <path d="M0.0417264 0.00143889c0.0230423,0 0.0417277,0.0186866 0.0417277,0.0417277 0,0.0230411 -0.0186854,0.0417277 -0.0417277,0.0417277 -0.0230411,0 -0.0417264,-0.0186866 -0.0417264,-0.0417277 0,-0.0230411 0.0186854,-0.0417277 0.0417264,-0.0417277z"/>
   </clipPath>
     <mask id="id1">
  <linearGradient id="id2" gradientUnits="userSpaceOnUse" x1="0.0332064" y1="0.0183858" x2="0.0562437" y2="0.0925633">
   <stop offset="0" style="stop-opacity:1; stop-color:white"/>
   <stop offset="0.231373" style="stop-opacity:0.501961; stop-color:white"/>
   <stop offset="1" style="stop-opacity:0; stop-color:white"/>
  </linearGradient>
      <rect style="fill:url(#id2)" x="-0.00497253" y="0.0230474" width="0.0993952" height="0.0648531"/>
     </mask>
    <clipPath id="id3">
     <path d="M0.0184298 0l0.0400824 0 0 0.0327268 -0.0400824 0 0 -0.0327268z"/>
    </clipPath>
  <linearGradient id="id4" gradientUnits="userSpaceOnUse" x1="0.0447263" y1="0.0866428" x2="0.0447263" y2="0.0243087">
   <stop offset="0" style="stop-color:#2FB1D5"/>
   <stop offset="1" style="stop-color:#3276D9"/>
  </linearGradient>
  <linearGradient id="id5" gradientUnits="userSpaceOnUse" x1="0.0578639" y1="0.0828763" x2="0.018708" y2="-0.0345937">
   <stop offset="0" style="stop-color:#00EEFF"/>
   <stop offset="1" style="stop-color:#3276D9"/>
  </linearGradient>
 </defs>
 <g id="图层_x0020_18">
  <metadata id="CorelCorpID_0Corel-Layer"/>
  <g>
  </g>
  <g style="clip-path:url(#id0)">
   <g>
    <polygon class="fil0" points="-0.0147653,0.0152172 0.0752942,-0.0148962 0.0913284,0.0330566 0.00126894,0.06317 "/>
    <polygon class="fil1" points="-0.00053376,0.0632178 1.63653e-005,0.0606233 0.00881208,0.0577141 0.0156452,0.0533911 0.0230285,0.0474165 0.0267195,0.0433302 0.0327709,0.03939 0.0422703,0.0379851 0.048868,0.0395561 0.0571148,0.0400773 0.0652824,0.0396355 0.0700736,0.036098 0.075415,0.0316958 0.081698,0.0243075 0.0931638,0.0560637 0.0700736,0.0866428 0.00590661,0.0831042 -0.00371366,0.0646529 -0.00267384,0.0633261 "/>
    <polygon class="fil2" style="mask:url(#id1)" points="-0.00053376,0.0632178 1.63653e-005,0.0606233 0.00881208,0.0577141 0.0156452,0.0533911 0.0230285,0.0474165 0.0267195,0.0433302 0.0327709,0.03939 0.0422703,0.0379851 0.048868,0.0395561 0.0571148,0.0400773 0.0652824,0.0396355 0.0700736,0.036098 0.075415,0.0316958 0.081698,0.0243075 0.0931638,0.0560637 0.0700736,0.0866428 0.00590661,0.0831042 -0.00371366,0.0646529 -0.00267384,0.0633261 "/>
    <path class="fil3" d="M0.0149541 0.0619527l0.0106878 0 0 0.0282704 -0.0106878 0 0 -0.0282704zm0.0432988 -0.0143964l0.0106878 0 0 0.0426668 -0.0106878 0 0 -0.0426668zm-0.0144254 0.0053162l0.0106878 0 0 0.0373506 -0.0106878 0 0 -0.0373506zm-0.0145324 0.00388361l0.0106865 0 0 0.033467 -0.0106865 0 0 -0.033467z"/>
   </g>
  </g>
  <path class="fil4" d="M0.0417264 0.00143889c0.0230423,0 0.0417277,0.0186866 0.0417277,0.0417277 0,0.0230411 -0.0186854,0.0417277 -0.0417277,0.0417277 -0.0230411,0 -0.0417264,-0.0186866 -0.0417264,-0.0417277 0,-0.0230411 0.0186854,-0.0417277 0.0417264,-0.0417277z"/>
  <g>
   <g style="clip-path:url(#id3)">
    <image transform="matrix(1 0 0 1 -0.112068 -0.321983)" x="0.130498" y="0.321983" width="0.0400824" height="0.0327268" xlink:href="icon_markets_on_Images\icon_markets_on_ImgID1.png"/>
   </g>
  </g>
  <path class="fil3" d="M0.0215103 0.0010713l0.032042 0c0.00103857,0 0.00188578,0.000848477 0.00188578,0.00188578l0 0.0150938c0,0.00103857 -0.000847218,0.00188704 -0.00188578,0.00188704l-0.0134875 0 -0.00124124 0.0046981 -0.0012916 0.00489322 -0.00129286 -0.00489322 -0.00124124 -0.0046981 -0.0134875 0c-0.00103857,0 -0.00188578,-0.000848477 -0.00188578,-0.00188704l0 -0.0150938c0,-0.00103731 0.000847218,-0.00188578 0.00188578,-0.00188578z"/>
  <path class="fil5" d="M0.0283434 0.00816754l0.0183757 0c0.00108137,0 0.00196509,0.000703707 0.00196509,0.00156477l0 0c0,0.000861066 -0.000883725,0.00156603 -0.00196509,0.00156603l-0.0183757 0c-0.00108137,0 -0.00196509,-0.000704966 -0.00196509,-0.00156603l0 0c0,-0.000861066 0.000883725,-0.00156477 0.00196509,-0.00156477z"/>
  <path class="fil6" d="M0.00275063 0.0579457c0.00343923,-0.000501029 0.0101893,-0.00281986 0.0199178,-0.0121972 0.00352861,-0.00340146 0.00670725,-0.005607 0.00964796,-0.00698294l-5.03547e-006 -0.000216525c0,-0.00288281 0.00233772,-0.00522053 0.00522053,-0.00522053 0.00226596,0 0.00419707,0.00144644 0.00491714,0.00346692 0.00260082,0.000142252 0.00510093,0.000684824 0.00761993,0.00123117 0.00270153,0.000586632 0.00543202,0.00118082 0.00832993,0.00121607 0.00477237,5.91668e-005 0.00904497,-0.00185179 0.0127435,-0.00485168 0.00314465,-0.00254921 0.00588521,-0.00588269 0.00818642,-0.00948053 0.00042298,0.000876172 0.000815746,0.00176997 0.0011783,0.00268013 -0.00224204,0.00328313 -0.00485419,0.00630945 -0.00781253,0.00870759 -0.00412405,0.00334355 -0.00892034,0.00547356 -0.0143259,0.0054081 -0.00310815,-3.90249e-005 -0.00597962,-0.000663423 -0.00882089,-0.00128027 -0.00226596,-0.000492217 -0.00451556,-0.000979399 -0.00685202,-0.00112165 -0.000366331,0.00252529 -0.00253914,0.00446395 -0.00516388,0.00446395 -0.00191474,0 -0.00358777,-0.00103227 -0.00449668,-0.00256809 -0.00264488,0.0012702 -0.00549748,0.00327306 -0.00865849,0.00631952 -0.00946543,0.00912176 -0.0165591,0.0119139 -0.0206782,0.0126969 -0.000337377,-0.00074525 -0.000653352,-0.00150309 -0.000947928,-0.002271z"/>
  <path class="fil7" d="M0.0375319 0.0359961c0.00140993,0 0.00255173,0.00114305 0.00255173,0.00255298 0,0.00140993 -0.00114179,0.00255298 -0.00255173,0.00255298 -0.00140993,0 -0.00255298,-0.00114305 -0.00255298,-0.00255298 0,-0.00140993 0.00114305,-0.00255298 0.00255298,-0.00255298z"/>
 </g>
</svg>
