<?xml version="1.0" encoding="UTF-8"?>
<!DOCTYPE svg PUBLIC "-//W3C//DTD SVG 1.1//EN" "http://www.w3.org/Graphics/SVG/1.1/DTD/svg11.dtd">
<!-- Creator: CorelDRAW -->
<svg xmlns="http://www.w3.org/2000/svg" xml:space="preserve" width="0.100138in" height="0.131402in" style="shape-rendering:geometricPrecision; text-rendering:geometricPrecision; image-rendering:optimizeQuality; fill-rule:evenodd; clip-rule:evenodd"
viewBox="0 0 0.00626046 0.00821502"
 xmlns:xlink="http://www.w3.org/1999/xlink">
 <defs>
  <style type="text/css">
   <![CDATA[
    .fil0 {fill:white;fill-rule:nonzero}
   ]]>
  </style>
 </defs>
 <g id="图层_x0020_18">
  <metadata id="CorelCorpID_0Corel-Layer"/>
  <path class="fil0" d="M0.00028281 0l0.00386285 0 0.000283056 0 0.00183174 0.00188515 0 0.00028281 0 0.0057645 0 0.00028281 -0.00028281 0 -0.00569484 0 -0.00028281 0 0 -0.00028281 0 -0.00764965 0 -0.00028281 0.00028281 0zm0.00129369 0.00619671l0 -0.00056562 0.00323718 0 0 0.00056562 -0.00323718 0zm0 -0.00224943l0 -0.00056562 0.00323718 0 0 0.00056562 -0.00323718 0zm0 0.00112459l0 -0.00056562 0.00323718 0 0 0.00056562 -0.00323718 0zm0.00228635 -0.00450625l-0.00329699 0 0 0.00708403 0.00512873 0 0 -0.00519888 -0.00154893 0 -0.00028281 0 0 -0.00028281 0 -0.00160234z"/>
 </g>
</svg>
