<?xml version="1.0" encoding="UTF-8"?>
<!DOCTYPE svg PUBLIC "-//W3C//DTD SVG 1.1//EN" "http://www.w3.org/Graphics/SVG/1.1/DTD/svg11.dtd">
<!-- Creator: CorelDRAW -->
<svg xmlns="http://www.w3.org/2000/svg" xml:space="preserve" width="0.274398in" height="0.274398in" style="shape-rendering:geometricPrecision; text-rendering:geometricPrecision; image-rendering:optimizeQuality; fill-rule:evenodd; clip-rule:evenodd"
viewBox="0 0 0.0371358 0.0371358"
 xmlns:xlink="http://www.w3.org/1999/xlink">
 <defs>
  <style type="text/css">
   <![CDATA[
    .str0 {stroke:#DEDEDD;stroke-width:0.00106563}
    .fil0 {fill:none}
    .fil2 {fill:white;fill-rule:nonzero}
    .fil1 {fill:url(#id1)}
   ]]>
  </style>
     <clipPath id="id0">
      <path d="M0.0107496 0.00786118l0.0165402 0 0 0.021562 -0.0165402 0 0 -0.021562z"/>
     </clipPath>
  <linearGradient id="id1" gradientUnits="userSpaceOnUse" x1="0.0274102" y1="0.0196476" x2="0.00968342" y2="0.0150862">
   <stop offset="0" style="stop-color:#2FB1D5"/>
   <stop offset="1" style="stop-color:#3276D9"/>
  </linearGradient>
 </defs>
 <g id="图层_x0020_18">
  <metadata id="CorelCorpID_0Corel-Layer"/>
  <path class="fil0 str0" d="M0.0185676 0.000532817c0.00995889,0 0.0180353,0.00807644 0.0180353,0.0180348 0,0.00995889 -0.00807644,0.0180353 -0.0180353,0.0180353 -0.00995835,0 -0.0180348,-0.00807644 -0.0180348,-0.0180353 0,-0.00995835 0.00807644,-0.0180348 0.0180348,-0.0180348z"/>
  <g id="_322170640">
   <g>
    <g style="clip-path:url(#id0)">
     <image id="_322176640" transform="matrix(1 0 0 1 -0.126449 -0.121006)" x="0.137199" y="0.128867" width="0.0165402" height="0.021562" xlink:href="icon_balances_on_Images\icon_balances_on_ImgID1.png"/>
    </g>
   </g>
   <path id="_322170928" class="fil1" d="M0.0156073 0.012177c-0.000871689,0.00113543 -0.00619613,0.00834924 -0.00409097,0.0125558 0.00123614,0.00247121 0.00439095,0.00303866 0.00703106,0.00303812l0 0c0.00263958,5.32817e-007 0.00579332,-0.000566917 0.00702999,-0.00303812 0.00210569,-0.00420659 -0.00321928,-0.0114209 -0.00409097,-0.0125558l-0.00293955 0 0 0 -0.00293955 0zm0.0029241 0.0109137l-2.98378e-005 -5.32817e-007 0 0.000577574 -0.000638315 0 0 -0.000623929c-0.000254687,-3.62316e-005 -0.000500848,-9.48415e-005 -0.000736353,-0.000174764 -0.000438509,-0.000148123 -0.000824268,-0.000359652 -0.00115781,-0.000637249l0 0 0.00060528 -0.000911117 0 0c0.00026854,0.000222718 0.000568516,0.000392153 0.000902592,0.000511504 0.000333544,0.000116687 0.00068467,0.000175297 0.00105445,0.000175297 0.000464084,0 0.000824268,-8.31195e-005 0.00108002,-0.000247227 0.000255219,-0.000166239 0.000383096,-0.000400679 0.000383096,-0.000701187l0 -5.32817e-006c0,-0.000232841 -6.44709e-005,-0.000410269 -0.000193413,-0.000533883 -0.000128409,-0.000124146 -0.000297312,-0.000215258 -0.000507775,-0.000275466 -0.00020993,-5.80771e-005 -0.000437976,-0.000108695 -0.000685736,-0.000149722 -0.00026481,-4.74207e-005 -0.000531752,-0.000101768 -0.00080189,-0.000164108 -0.000270671,-6.18068e-005 -0.00052003,-0.000158247 -0.000745944,-0.000286656 -0.000227513,-0.000128409 -0.000411868,-0.000315961 -0.000551999,-0.000559991 -0.000138532,-0.00024403 -0.000207799,-0.000574377 -0.000207799,-0.000986777l0 -4.26254e-006c0,-0.000663357 0.000217389,-0.00117433 0.000654299,-0.00153664 0.000246162,-0.000204602 0.000549334,-0.000350061 0.000908986,-0.000439574l0 -0.00080189 0.000638315 0 0 0.000706516c9.96368e-005,-6.39381e-006 0.000201405,-9.59071e-006 0.000306903,-9.59071e-006 4.58223e-005,0 9.11117e-005,1.06563e-006 0.000136934,2.66409e-006l0 -0.000699589 0.000638315 0 0 0.000785372c0.000115089,2.6108e-005 0.000230177,5.75443e-005 0.000344733,9.59071e-005 0.000372439,0.000121482 0.000723566,0.00030264 0.00105871,0.000541875l0 0 -0.000553064 0.000939357 0 0c-0.000540277,-0.000389489 -0.00108215,-0.000583435 -0.00162563,-0.000583435 -0.000435844,0 -0.000774716,8.20538e-005 -0.00101608,0.000241366 -0.000242432,0.000160911 -0.000362848,0.000387358 -0.000362848,0.00068094l0 4.26254e-006c0,0.000241366 7.03319e-005,0.000424122 0.000211528,0.000549334 0.000141729,0.000123081 0.00032715,0.000216324 0.000556794,0.000278131 0.000227513,6.1274e-005 0.000473674,0.000118285 0.000734222,0.000169436 0.000260548,5.00848e-005 0.000520562,0.000112424 0.000780044,0.00018542 0.000258416,7.2996e-005 0.000494454,0.000179559 0.000709712,0.000317026 0.000215258,0.000138532 0.000385227,0.00032715 0.00051257,0.000568516 0.00012681,0.000239768 0.000190749,0.000551999 0.000190749,0.00093616l0 9.59071e-006c0,0.000652701 -0.000226447,0.00115781 -0.000678809,0.00151746 -0.000236571,0.000188084 -0.000524825,0.000326617 -0.000862631,0.00041613l0 0.000700122 -0.000638315 0 0 -0.000593558c-0.000132671,1.06563e-005 -0.000270138,1.65173e-005 -0.000413999,1.65173e-005zm1.59845e-005 -0.0114588l0.00303386 -4.68879e-005c0,0 0.00162136,-0.00193359 0.00137627,-0.00327736 -0.000247227,-0.0013443 -0.00163202,-4.68879e-005 -0.00237104,0.000330347 -0.000734755,0.000375103 -0.00062979,-0.000833326 -0.00203962,-0.000918044l0 0c-0.0014093,8.52507e-005 -0.00130487,0.00129315 -0.00203962,0.000918577 -0.000739017,-0.000377235 -0.00212381,-0.00167518 -0.00236997,-0.000330879 -0.000246162,0.0013443 0.00137573,0.00327789 0.00137573,0.00327789l0.00303439 4.63551e-005 0 0z"/>
   <path id="_322170880" class="fil2" d="M0.0185314 0.0230902l-2.93049e-005 0 0 0.000577574 -0.000638848 0 0 -0.000623929c-0.000254687,-3.67644e-005 -0.000500848,-9.48415e-005 -0.000736886,-0.000174764 -0.000437443,-0.000148123 -0.000823735,-0.000360184 -0.00115728,-0.000636716l0 0 0.000605813 -0.00091165 0 0c0.00026854,0.00022325 0.000567983,0.000392153 0.000901527,0.000510972 0.000334076,0.00011722 0.000685736,0.00017583 0.00105498,0.00017583 0.000464084,0 0.000823735,-8.25867e-005 0.00107949,-0.000247227 0.000255752,-0.000166239 0.000384161,-0.000400679 0.000384161,-0.00070172l0 -4.79535e-006c0,-0.000232841 -6.50037e-005,-0.000410269 -0.000193945,-0.000533883 -0.000128409,-0.000123614 -0.000297845,-0.000215258 -0.000507775,-0.000275466 -0.00020993,-5.86099e-005 -0.000437976,-0.000108695 -0.000685203,-0.000149722 -0.000265343,-4.68879e-005 -0.000532284,-0.000102301 -0.000802423,-0.000164108 -0.000270671,-6.18068e-005 -0.000519497,-0.000158247 -0.000745944,-0.000286656 -0.000228046,-0.000128409 -0.000411868,-0.000315961 -0.000551999,-0.000559991 -0.000138,-0.00024403 -0.000208332,-0.00057491 -0.000208332,-0.000986777l0 -4.79535e-006c0,-0.000662825 0.000218455,-0.0011738 0.000654832,-0.00153664 0.000246162,-0.000203536 0.000548802,-0.000350061 0.000908986,-0.000439574l0 -0.000801357 0.000638848 0 0 0.000706516c9.85712e-005,-6.39381e-006 0.000200872,-9.59071e-006 0.00030637,-9.59071e-006 4.52895e-005,0 9.11117e-005,1.06563e-006 0.000136934,2.66409e-006l0 -0.000699589 0.000638315 0 0 0.000785372c0.000115089,2.6108e-005 0.000230177,5.80771e-005 0.000344733,9.59071e-005 0.000372972,0.000122015 0.000724099,0.00030264 0.00105817,0.000541875l0 0 -0.000551999 0.000939357 0 0c-0.000540277,-0.000388957 -0.00108268,-0.000582902 -0.00162616,-0.000582902 -0.000436377,0 -0.000775249,8.1521e-005 -0.00101608,0.000240833 -0.000242432,0.000161444 -0.000362848,0.000387891 -0.000362848,0.00068094l0 4.79535e-006c0,0.000240833 6.9799e-005,0.000423057 0.000211528,0.000548269 0.000141729,0.000123614 0.00032715,0.000216857 0.000556794,0.000278663 0.000228046,6.18068e-005 0.000473674,0.000118818 0.000734222,0.000168903 0.000260548,5.06176e-005 0.000520562,0.000112424 0.000779511,0.000185953 0.000258949,7.2996e-005 0.000494987,0.000179027 0.000710245,0.000317559 0.000214725,0.000138532 0.00038576,0.00032715 0.00051257,0.000567983 0.00012681,0.000239235 0.000190749,0.000551999 0.000190749,0.00093616l0 9.59071e-006c0,0.000653234 -0.000226447,0.00115781 -0.000679342,0.00151746 -0.000236038,0.000188084 -0.000523759,0.000326617 -0.000862098,0.00041613l0 0.000700122 -0.000638315 0 0 -0.000593558c-0.000132671,1.06563e-005 -0.000270138,1.59845e-005 -0.000413999,1.59845e-005z"/>
  </g>
 </g>
</svg>
