<?xml version="1.0" encoding="UTF-8"?>
<!DOCTYPE svg PUBLIC "-//W3C//DTD SVG 1.1//EN" "http://www.w3.org/Graphics/SVG/1.1/DTD/svg11.dtd">
<!-- Creator: CorelDRAW -->
<svg xmlns="http://www.w3.org/2000/svg" xml:space="preserve" width="0.178276in" height="0.178276in" style="shape-rendering:geometricPrecision; text-rendering:geometricPrecision; image-rendering:optimizeQuality; fill-rule:evenodd; clip-rule:evenodd"
viewBox="0 0 0.0690598 0.0690598"
 xmlns:xlink="http://www.w3.org/1999/xlink">
 <defs>
  <style type="text/css">
   <![CDATA[
    .fil0 {fill:#969594;fill-rule:nonzero}
   ]]>
  </style>
 </defs>
 <g id="图层_x0020_18">
  <metadata id="CorelCorpID_0Corel-Layer"/>
  <path class="fil0" d="M0.0345299 0c0.0095319,0 0.0181625,0.00386614 0.0244108,0.010113l6.10042e-006 6.10042e-006c0.00624683,0.00624835 0.010113,0.0148804 0.010113,0.0244108 0,0.00952733 -0.00386614,0.0181625 -0.010113,0.0244108l-6.10042e-006 6.10042e-006c-0.00624835,0.00624683 -0.0148789,0.010113 -0.0244108,0.010113 -0.0095319,0 -0.0181625,-0.00386614 -0.0244108,-0.010113l-6.10042e-006 -6.10042e-006c-0.00624683,-0.00624835 -0.010113,-0.0148835 -0.010113,-0.0244108 0,-0.00953038 0.00386614,-0.0181625 0.010113,-0.0244108l6.10042e-006 -6.10042e-006c0.00624835,-0.00624683 0.0148789,-0.010113 0.0244108,-0.010113zm0.0225929 0.011937c-0.00578167,-0.00578015 -0.0137717,-0.00935652 -0.0225929,-0.00935652 -0.00882121,0 -0.0168112,0.00357637 -0.0225929,0.00935652 -0.00578015,0.00578167 -0.00935652,0.0137732 -0.00935652,0.0225929 0,0.00882121 0.00357637,0.0168112 0.00935652,0.0225929 0.00578167,0.00578015 0.0137717,0.00935652 0.0225929,0.00935652 0.00882121,0 0.0168112,-0.00357637 0.0225929,-0.00935652 0.00578015,-0.00578167 0.00935652,-0.0137717 0.00935652,-0.0225929 0,-0.00881968 -0.00357637,-0.0168112 -0.00935652,-0.0225929z"/>
  <path class="fil0" d="M0.0345284 0.0554345c0.000599366,-0.00223123 0.00116976,-0.00429775 0.00168829,-0.00617515 0.000841858,-0.00304563 0.00154188,-0.00558188 0.00205737,-0.00776736l-3.66025e-005 2.74519e-005 -1.5251e-005 9.15063e-006 -5.03285e-005 3.66025e-005 -9.15063e-006 6.10042e-006 -4.27029e-005 2.8977e-005 -0.000181487 0.000123533 -2.74519e-005 1.67762e-005 -4.72782e-005 3.05021e-005 -6.10042e-006 3.05021e-006 -5.33787e-005 3.20272e-005 -1.83013e-005 1.22008e-005 -3.50774e-005 1.98264e-005 -4.27029e-005 2.74519e-005 -1.06757e-005 6.10042e-006 -5.33787e-005 3.05021e-005 -1.22008e-005 7.62552e-006 -4.27029e-005 2.28766e-005 -3.50774e-005 2.13515e-005 -1.98264e-005 9.15063e-006 -5.49038e-005 3.05021e-005 -4.57531e-006 3.05021e-006 -4.88034e-005 2.59268e-005 -3.05021e-005 1.5251e-005 -2.59268e-005 1.37259e-005 -5.33787e-005 2.8977e-005 -1.5251e-006 0 -5.64289e-005 2.74519e-005 -2.28766e-005 1.22008e-005 -3.20272e-005 1.5251e-005 -4.88034e-005 2.13515e-005 -7.62552e-006 4.57531e-006 -5.64289e-005 2.59268e-005 -1.67762e-005 7.62552e-006 -4.11778e-005 1.67762e-005 -4.11778e-005 1.98264e-005 -1.5251e-005 6.10042e-006 -5.7954e-005 2.44017e-005 -9.15063e-006 4.57531e-006 -4.72782e-005 1.98264e-005 -3.50774e-005 1.37259e-005 -2.28766e-005 9.15063e-006 -5.7954e-005 2.28766e-005 -1.5251e-006 1.5251e-006 -5.64289e-005 1.98264e-005 -2.8977e-005 1.06757e-005 -2.8977e-005 1.06757e-005 -5.33787e-005 1.98264e-005 -4.57531e-006 1.5251e-006 -5.94791e-005 2.13515e-005 -2.13515e-005 6.10042e-006 -3.81276e-005 1.37259e-005 -4.72782e-005 1.5251e-005 -1.22008e-005 3.05021e-006 -5.94791e-005 1.83013e-005 -1.37259e-005 4.57531e-006 -4.57531e-005 1.37259e-005 -3.96527e-005 1.22008e-005 -1.98264e-005 4.57531e-006 -5.94791e-005 1.67762e-005 -6.10042e-006 3.05021e-006 -5.49038e-005 1.37259e-005 -3.20272e-005 9.15063e-006 -2.74519e-005 6.10042e-006 -6.10042e-005 1.5251e-005 -6.25293e-005 1.5251e-005 -2.44017e-005 6.10042e-006 -3.50774e-005 7.62552e-006 -5.33787e-005 1.22008e-005 -7.62552e-006 1.5251e-006 -6.25293e-005 1.22008e-005 -1.83013e-005 4.57531e-006 -4.27029e-005 7.62552e-006 -4.57531e-005 9.15063e-006 -1.67762e-005 1.5251e-006 -6.10042e-005 1.06757e-005 -1.06757e-005 3.05021e-006 -5.18536e-005 7.62552e-006 -3.81276e-005 6.10042e-006 -2.44017e-005 3.05021e-006 -6.25293e-005 9.15063e-006 -3.05021e-006 0 -5.94791e-005 7.62552e-006 -3.20272e-005 4.57531e-006 -3.20272e-005 3.05021e-006 -5.7954e-005 7.62552e-006 -4.57531e-006 0 -6.25293e-005 6.10042e-006 -2.28766e-005 1.5251e-006 -4.11778e-005 4.57531e-006 -5.03285e-005 4.57531e-006 -1.22008e-005 0 -6.40544e-005 4.57531e-006 -1.5251e-005 1.5251e-006 -4.88034e-005 1.5251e-006 -4.27029e-005 3.05021e-006 -2.13515e-005 0 -6.40544e-005 1.5251e-006 -7.62552e-006 1.5251e-006 -5.64289e-005 1.5251e-006 -3.66025e-005 0 -2.8977e-005 1.5251e-006 -6.40544e-005 0 -6.40544e-005 0 -2.8977e-005 -1.5251e-006 -3.66025e-005 0 -5.49038e-005 -1.5251e-006 -9.15063e-006 -1.5251e-006 -6.40544e-005 -1.5251e-006 -1.98264e-005 0 -4.27029e-005 -3.05021e-006 -4.88034e-005 -1.5251e-006 -1.67762e-005 -1.5251e-006 -6.40544e-005 -4.57531e-006 -1.06757e-005 0 -5.18536e-005 -4.57531e-006 -3.96527e-005 -4.57531e-006 -2.28766e-005 -1.5251e-006 -6.40544e-005 -6.10042e-006 -4.57531e-006 0 -5.7954e-005 -7.62552e-006 -3.20272e-005 -3.05021e-006 -3.05021e-005 -4.57531e-006 -5.94791e-005 -7.62552e-006 -4.57531e-006 0 -6.10042e-005 -9.15063e-006 -2.59268e-005 -3.05021e-006 -3.81276e-005 -6.10042e-006 -5.03285e-005 -7.62552e-006 -1.06757e-005 -3.05021e-006 -6.25293e-005 -1.06757e-005 -1.67762e-005 -1.5251e-006 -4.4228e-005 -9.15063e-006 -4.27029e-005 -7.62552e-006 -1.98264e-005 -4.57531e-006 -6.10042e-005 -1.22008e-005 -9.15063e-006 -1.5251e-006 -5.18536e-005 -1.22008e-005 -3.66025e-005 -7.62552e-006 -2.44017e-005 -6.10042e-006 -6.25293e-005 -1.5251e-005 -5.94791e-005 -1.5251e-005 -2.74519e-005 -6.10042e-006 -3.20272e-005 -9.15063e-006 -5.49038e-005 -1.37259e-005 -6.10042e-006 -3.05021e-006 -6.10042e-005 -1.67762e-005 -1.83013e-005 -4.57531e-006 -4.11778e-005 -1.22008e-005 -4.4228e-005 -1.37259e-005 -1.5251e-005 -4.57531e-006 -5.94791e-005 -1.83013e-005 -1.22008e-005 -3.05021e-006 -4.72782e-005 -1.5251e-005 -3.81276e-005 -1.37259e-005 -1.98264e-005 -6.10042e-006 -5.94791e-005 -2.13515e-005 -4.57531e-006 -1.5251e-006 -5.33787e-005 -1.98264e-005 -3.05021e-005 -1.06757e-005 -2.8977e-005 -1.06757e-005 -5.49038e-005 -1.98264e-005 -3.05021e-006 -1.5251e-006 -5.7954e-005 -2.28766e-005 -2.28766e-005 -9.15063e-006 -3.35523e-005 -1.37259e-005 -4.88034e-005 -1.98264e-005 -9.15063e-006 -4.57531e-006 -5.64289e-005 -2.44017e-005 -1.5251e-005 -6.10042e-006 -4.27029e-005 -1.98264e-005 -3.96527e-005 -1.67762e-005 -1.67762e-005 -7.62552e-006 -5.7954e-005 -2.59268e-005 -6.10042e-006 -4.57531e-006 -4.88034e-005 -2.13515e-005 -3.20272e-005 -1.5251e-005 -2.44017e-005 -1.22008e-005 -5.64289e-005 -2.74519e-005 0 0 -5.33787e-005 -2.8977e-005 -2.74519e-005 -1.37259e-005 -2.8977e-005 -1.5251e-005 -4.88034e-005 -2.59268e-005 -6.10042e-006 -3.05021e-006 -5.49038e-005 -3.05021e-005 -1.83013e-005 -9.15063e-006 -3.66025e-005 -2.13515e-005 -4.11778e-005 -2.28766e-005 -1.37259e-005 -7.62552e-006 -5.33787e-005 -3.05021e-005 -1.06757e-005 -6.10042e-006 -4.27029e-005 -2.74519e-005 -3.35523e-005 -1.98264e-005 -1.98264e-005 -1.22008e-005 -5.33787e-005 -3.20272e-005 -3.05021e-006 -3.05021e-006 -4.88034e-005 -3.05021e-005 -2.74519e-005 -1.67762e-005 -2.59268e-005 -1.83013e-005 -4.88034e-005 -3.20272e-005 -3.05021e-006 -3.05021e-006 -5.18536e-005 -3.35523e-005 -2.13515e-005 -1.37259e-005 -3.20272e-005 -2.28766e-005 -4.27029e-005 -2.8977e-005 -7.62552e-006 -6.10042e-006 -5.18536e-005 -3.66025e-005 -1.37259e-005 -9.15063e-006 -3.66025e-005 -2.74519e-005c0.00051396,0.00218853 0.00121551,0.00472325 0.00205737,0.00777193 0.000518536,0.00187588 0.00108892,0.00393935 0.00168677,0.00617057zm0 -0.0226554c0.0010203,0 0.00184385,0.000825082 0.00184385,0.00184385 0,0.00101724 -0.000823557,0.00184233 -0.00184385,0.00184233 -0.00101724,0 -0.00184233,-0.000825082 -0.00184233,-0.00184233 0,-0.00101877 0.000825082,-0.00184385 0.00184233,-0.00184385zm0.00115298 -0.0241363c0.00108587,0.00424742 0.00202076,0.00762247 0.00281992,0.0105217 0.00193688,0.00700786 0.00314629,0.0113819 0.00311731,0.0152663l3.05021e-006 9.91318e-005 0 1.5251e-005 -4.57531e-006 0c4.88034e-005,0.00390579 -0.00116365,0.00829047 -0.00311426,0.0153471 -0.00080068,0.00290227 -0.00173404,0.00627276 -0.00282144,0.0105247 -0.000105232,0.000408728 -0.000422454,0.000748826 -0.000860159,0.000860159 -0.000635969,0.000160136 -0.00128414,-0.00022419 -0.0014458,-0.000860159 -0.00108587,-0.00424589 -0.00201924,-0.00762095 -0.00281992,-0.0105202 -0.00193383,-0.00700176 -0.00314172,-0.0113727 -0.00311579,-0.0152541l-3.05021e-006 -9.76067e-005 0 -1.5251e-005 4.57531e-006 0c-5.03285e-005,-0.00391037 0.00116213,-0.00829809 0.00311579,-0.01537 0.00080068,-0.00290075 0.00173404,-0.00627428 0.00281839,-0.0105171 0.000161661,-0.000635969 0.000809831,-0.0010203 0.0014458,-0.000860159 0.000437705,0.000111333 0.000754927,0.000451431 0.000860159,0.000860159zm0.000533787 0.0111546c-0.00051701,-0.00187588 -0.0010874,-0.00393935 -0.00168677,-0.0061721 -0.000596316,0.0022297 -0.00116823,0.00429317 -0.00168524,0.00616752 -0.00189723,0.0068645 -0.00307614,0.0111287 -0.00303343,0.0146913l1.5251e-006 1.67762e-005 0 1.5251e-005 0 1.37259e-005 4.57531e-006 0 0 1.5251e-005 -3.05021e-006 7.47301e-005 0 4.57531e-006 1.5251e-006 3.20272e-005 1.5251e-006 4.11778e-005 1.5251e-006 3.50774e-005 1.5251e-006 3.81276e-005 3.05021e-006 3.81276e-005 0 3.66025e-005 4.57531e-006 4.11778e-005 1.5251e-006 3.20272e-005 3.05021e-006 4.4228e-005 1.5251e-006 2.8977e-005 4.57531e-006 4.72782e-005 1.5251e-006 2.59268e-005 6.10042e-006 5.03285e-005 1.5251e-006 2.28766e-005 4.57531e-006 5.18536e-005 3.05021e-006 1.98264e-005 6.10042e-006 5.49038e-005 1.5251e-006 1.83013e-005 7.62552e-006 5.64289e-005 1.5251e-006 1.5251e-005 7.62552e-006 5.94791e-005 1.5251e-006 1.06757e-005 9.15063e-006 6.40544e-005 1.5251e-006 7.62552e-006 1.06757e-005 6.71046e-005 0 4.57531e-006 1.22008e-005 6.86297e-005 0 1.5251e-006 1.22008e-005 7.16799e-005 0 0 1.22008e-005 7.01548e-005 1.5251e-006 3.05021e-006 1.22008e-005 6.55795e-005 1.5251e-006 7.62552e-006 2.74519e-005 0.000131159 4.57531e-006 1.22008e-005 1.06757e-005 5.7954e-005 4.57531e-006 1.5251e-005 1.22008e-005 5.33787e-005 4.57531e-006 1.67762e-005 1.22008e-005 5.03285e-005 6.10042e-006 2.13515e-005c4.72782e-005,0.000189113 0.000103707,0.000372126 0.000166236,0.000553613l7.62552e-006 2.44017e-005c0.000257743,0.0007351 0.000632918,0.001397 0.00109503,0.00194603l4.57531e-006 6.10042e-006 3.50774e-005 4.11778e-005 3.05021e-006 4.57531e-006 3.81276e-005 4.11778e-005 3.05021e-006 4.57531e-006 3.66025e-005 4.11778e-005 3.05021e-006 4.57531e-006 3.81276e-005 4.11778e-005 3.05021e-006 4.57531e-006 3.81276e-005 3.96527e-005 3.05021e-006 4.57531e-006 3.81276e-005 3.96527e-005 4.57531e-006 3.05021e-006 3.81276e-005 3.96527e-005 3.05021e-006 4.57531e-006 3.96527e-005 3.81276e-005 3.05021e-006 4.57531e-006 4.11778e-005 3.81276e-005 1.5251e-006 3.05021e-006 4.11778e-005 3.81276e-005 3.05021e-006 3.05021e-006 3.96527e-005 3.66025e-005 3.05021e-006 4.57531e-006 4.11778e-005 3.66025e-005 3.05021e-006 3.05021e-006 4.11778e-005 3.66025e-005 4.57531e-006 3.05021e-006 4.11778e-005 3.50774e-005 3.05021e-006 4.57531e-006 4.11778e-005 3.50774e-005 4.57531e-006 3.05021e-006 9.15063e-006 7.62552e-006 7.93054e-005 6.40544e-005 1.5251e-006 3.05021e-006 4.4228e-005 3.35523e-005 1.5251e-006 1.5251e-006 4.57531e-005 3.35523e-005 3.05021e-006 3.05021e-006 4.4228e-005 3.20272e-005 1.5251e-006 3.05021e-006 4.57531e-005 3.20272e-005 1.5251e-006 1.5251e-006 4.57531e-005 3.20272e-005 3.05021e-006 3.05021e-006 4.57531e-005 3.05021e-005 3.05021e-006 1.5251e-006 4.4228e-005 3.05021e-005 3.05021e-006 1.5251e-006 4.57531e-005 3.05021e-005 3.05021e-006 1.5251e-006 4.72782e-005 2.8977e-005 1.5251e-006 1.5251e-006 4.72782e-005 2.8977e-005 1.5251e-006 1.5251e-006 4.88034e-005 2.8977e-005 1.5251e-006 1.5251e-006 4.72782e-005 2.74519e-005 3.05021e-006 0 4.72782e-005 2.74519e-005 3.05021e-006 1.5251e-006 4.88034e-005 2.59268e-005 1.5251e-006 1.5251e-006 4.88034e-005 2.59268e-005 1.5251e-006 0 5.03285e-005 2.59268e-005 1.5251e-006 0 4.88034e-005 2.44017e-005 3.05021e-006 1.5251e-006 5.03285e-005 2.28766e-005 0 1.5251e-006 5.18536e-005 2.28766e-005 1.5251e-006 1.5251e-006 5.03285e-005 2.13515e-005 1.5251e-006 1.5251e-006 5.18536e-005 2.13515e-005 0 0 5.33787e-005 2.13515e-005 0 0 5.18536e-005 1.98264e-005 1.5251e-006 1.5251e-006 5.18536e-005 1.83013e-005 1.5251e-006 1.5251e-006 5.18536e-005 1.83013e-005 1.5251e-006 0 5.33787e-005 1.83013e-005 1.5251e-006 0 5.18536e-005 1.83013e-005 1.5251e-006 0 5.33787e-005 1.67762e-005 1.5251e-006 0 5.33787e-005 1.5251e-005 1.5251e-006 0 5.33787e-005 1.5251e-005 1.5251e-006 0 5.49038e-005 1.37259e-005 5.33787e-005 1.37259e-005 1.5251e-006 0 5.49038e-005 1.37259e-005 1.5251e-006 0 5.49038e-005 1.06757e-005 0 0 5.49038e-005 1.06757e-005 1.5251e-006 0 5.49038e-005 1.06757e-005 1.5251e-006 0 5.49038e-005 9.15063e-006 5.64289e-005 7.62552e-006 1.5251e-006 0 5.64289e-005 9.15063e-006 0 0 5.64289e-005 6.10042e-006 1.5251e-006 0 5.49038e-005 6.10042e-006 1.5251e-006 0 5.7954e-005 4.57531e-006 0 1.5251e-006 5.64289e-005 3.05021e-006 5.7954e-005 3.05021e-006 5.7954e-005 1.5251e-006 5.7954e-005 3.05021e-006 5.7954e-005 0 5.7954e-005 0 5.94791e-005 -3.05021e-006 5.64289e-005 -1.5251e-006 5.7954e-005 -3.05021e-006 5.7954e-005 -3.05021e-006 5.64289e-005 -6.10042e-006 1.5251e-006 0 5.64289e-005 -6.10042e-006 0 0 5.64289e-005 -6.10042e-006 1.5251e-006 0 5.64289e-005 -9.15063e-006 0 0 5.64289e-005 -7.62552e-006 5.64289e-005 -9.15063e-006 0 0 5.49038e-005 -1.06757e-005 1.5251e-006 0 5.49038e-005 -1.06757e-005 1.5251e-006 0 5.49038e-005 -1.06757e-005 0 0 5.49038e-005 -1.37259e-005 1.5251e-006 0 5.49038e-005 -1.37259e-005 5.49038e-005 -1.37259e-005 1.5251e-006 0 5.33787e-005 -1.5251e-005 0 0 5.49038e-005 -1.5251e-005 0 0 5.33787e-005 -1.67762e-005 1.5251e-006 0 5.33787e-005 -1.83013e-005 0 0 5.33787e-005 -1.83013e-005 1.5251e-006 0 5.33787e-005 -1.83013e-005 0 -1.5251e-006 5.33787e-005 -1.83013e-005 0 0 5.18536e-005 -2.13515e-005 3.05021e-006 0 5.03285e-005 -2.13515e-005 1.5251e-006 0 5.03285e-005 -2.13515e-005 1.5251e-006 0 5.18536e-005 -2.28766e-005 0 -1.5251e-006 5.18536e-005 -2.28766e-005 1.5251e-006 -1.5251e-006 5.03285e-005 -2.28766e-005 1.5251e-006 0 5.03285e-005 -2.59268e-005 1.5251e-006 0 4.88034e-005 -2.59268e-005 1.5251e-006 0 4.88034e-005 -2.59268e-005 3.05021e-006 -1.5251e-006 4.88034e-005 -2.59268e-005 1.5251e-006 -1.5251e-006 4.72782e-005 -2.74519e-005 3.05021e-006 0 4.72782e-005 -2.74519e-005 3.05021e-006 -1.5251e-006 4.72782e-005 -2.8977e-005 3.05021e-006 -1.5251e-006 9.60816e-005 -5.94791e-005 1.5251e-006 -1.5251e-006 4.72782e-005 -3.05021e-005 1.5251e-006 0 4.57531e-005 -3.20272e-005 3.05021e-006 -1.5251e-006 4.57531e-005 -3.05021e-005 1.5251e-006 -1.5251e-006 4.57531e-005 -3.35523e-005 3.05021e-006 -1.5251e-006 4.4228e-005 -3.20272e-005 3.05021e-006 -3.05021e-006 4.4228e-005 -3.20272e-005 4.72782e-005 -3.66025e-005 3.05021e-006 -1.5251e-006 4.27029e-005 -3.35523e-005 3.05021e-006 -3.05021e-006 4.27029e-005 -3.35523e-005 3.05021e-006 -3.05021e-006 4.27029e-005 -3.50774e-005 3.05021e-006 -3.05021e-006 4.11778e-005 -3.50774e-005 4.57531e-006 -3.05021e-006 4.11778e-005 -3.66025e-005 3.05021e-006 -3.05021e-006 4.27029e-005 -3.66025e-005 3.05021e-006 -1.5251e-006 3.96527e-005 -3.81276e-005 4.57531e-006 -3.05021e-006 3.96527e-005 -3.81276e-005 3.05021e-006 -3.05021e-006 3.96527e-005 -3.81276e-005 4.57531e-006 -3.05021e-006 3.81276e-005 -3.81276e-005 4.57531e-006 -4.57531e-006 3.96527e-005 -3.81276e-005 3.05021e-006 -4.57531e-006 3.81276e-005 -3.96527e-005 3.05021e-006 -3.05021e-006 3.81276e-005 -3.96527e-005 4.57531e-006 -4.57531e-006 3.66025e-005 -3.96527e-005 4.57531e-006 -4.57531e-006 3.66025e-005 -4.11778e-005 4.57531e-006 -3.05021e-006 3.50774e-005 -4.27029e-005 6.10042e-006 -4.57531e-006 3.50774e-005 -4.11778e-005 4.57531e-006 -4.57531e-006 3.50774e-005 -4.11778e-005 4.57531e-006 -6.10042e-006c0.000573439,-0.000683247 0.00101267,-0.00154036 0.00126126,-0.00249507l7.62552e-006 -2.8977e-005 1.06757e-005 -4.11778e-005 7.62552e-006 -3.05021e-005 3.35523e-005 -0.000141835 9.15063e-006 -4.11778e-005 6.10042e-006 -3.20272e-005 9.15063e-006 -3.81276e-005 6.10042e-006 -3.35523e-005 7.62552e-006 -3.96527e-005 6.10042e-006 -3.35523e-005 1.37259e-005 -7.3205e-005 7.62552e-006 -3.81276e-005 4.57531e-006 -3.50774e-005 7.62552e-006 -3.96527e-005 4.57531e-006 -3.35523e-005 7.62552e-006 -3.81276e-005 4.57531e-006 -3.66025e-005 6.10042e-006 -3.66025e-005 4.57531e-006 -3.81276e-005 4.57531e-006 -3.81276e-005 4.57531e-006 -3.66025e-005 4.57531e-006 -3.66025e-005 6.10042e-006 -3.81276e-005 4.57531e-006 -3.66025e-005 3.05021e-006 -3.81276e-005 3.05021e-006 -3.66025e-005 4.57531e-006 -3.81276e-005 3.05021e-006 -3.66025e-005 3.05021e-006 -3.96527e-005 4.57531e-006 -3.66025e-005 1.5251e-006 -3.96527e-005 1.06757e-005 -0.000154036 1.5251e-006 -3.35523e-005 1.5251e-006 -4.27029e-005 1.5251e-006 -3.35523e-005 1.5251e-006 -4.27029e-005 1.5251e-006 -3.35523e-005 1.5251e-006 -4.4228e-005 0 -3.35523e-005 -4.57531e-006 0 0 -1.5251e-005 6.10042e-006 -0.000114383c2.59268e-005,-0.00354739 -0.0011484,-0.00780091 -0.00303343,-0.0146181z"/>
 </g>
</svg>
