<?xml version="1.0" encoding="UTF-8"?>
<!DOCTYPE svg PUBLIC "-//W3C//DTD SVG 1.1//EN" "http://www.w3.org/Graphics/SVG/1.1/DTD/svg11.dtd">
<!-- Creator: CorelDRAW -->
<svg xmlns="http://www.w3.org/2000/svg" xml:space="preserve" width="0.487512in" height="0.487512in" style="shape-rendering:geometricPrecision; text-rendering:geometricPrecision; image-rendering:optimizeQuality; fill-rule:evenodd; clip-rule:evenodd"
viewBox="0 0 0.0199036 0.0199036"
 xmlns:xlink="http://www.w3.org/1999/xlink">
 <defs>
  <style type="text/css">
   <![CDATA[
    .str0 {stroke:#DEDEDD;stroke-width:0.000321472}
    .fil3 {fill:none}
    .fil1 {fill:white}
    .fil2 {fill:#0AB7FF}
    .fil4 {fill:white;fill-rule:nonzero}
    .fil0 {fill:url(#id7)}
   ]]>
  </style>
    <clipPath id="id0">
     <path d="M0.0099518 0c0.0054954,0 0.0099518,0.0044564 0.0099518,0.0099518 0,0.0054954 -0.0044564,0.0099518 -0.0099518,0.0099518 -0.0054954,0 -0.0099518,-0.0044564 -0.0099518,-0.0099518 0,-0.0054954 0.0044564,-0.0099518 0.0099518,-0.0099518z"/>
    </clipPath>
     <clipPath id="id1">
      <path d="M0.0099518 0c0.0054954,0 0.0099518,0.0044564 0.0099518,0.0099518 0,0.0054954 -0.0044564,0.0099518 -0.0099518,0.0099518 -0.0054954,0 -0.0099518,-0.0044564 -0.0099518,-0.0099518 0,-0.0054954 0.0044564,-0.0099518 0.0099518,-0.0099518z"/>
     </clipPath>
      <clipPath id="id2">
       <path d="M0.0099518 0c0.0054954,0 0.0099518,0.0044564 0.0099518,0.0099518 0,0.0054954 -0.0044564,0.0099518 -0.0099518,0.0099518 -0.0054954,0 -0.0099518,-0.0044564 -0.0099518,-0.0099518 0,-0.0054954 0.0044564,-0.0099518 0.0099518,-0.0099518z"/>
      </clipPath>
      <clipPath id="id3">
       <path d="M0.0099518 0c0.0054954,0 0.0099518,0.0044564 0.0099518,0.0099518 0,0.0054954 -0.0044564,0.0099518 -0.0099518,0.0099518 -0.0054954,0 -0.0099518,-0.0044564 -0.0099518,-0.0099518 0,-0.0054954 0.0044564,-0.0099518 0.0099518,-0.0099518z"/>
      </clipPath>
       <mask id="id4">
  <linearGradient id="id5" gradientUnits="userSpaceOnUse" x1="0.0110964" y1="0.0291871" x2="0.0110964" y2="-0.0310063">
   <stop offset="0" style="stop-opacity:1; stop-color:white"/>
   <stop offset="0.270588" style="stop-opacity:0.501961; stop-color:white"/>
   <stop offset="1" style="stop-opacity:0; stop-color:white"/>
  </linearGradient>
        <rect style="fill:url(#id5)" x="-0.00489473" y="-0.0368996" width="0.0319823" height="0.0719801"/>
       </mask>
     <clipPath id="id6">
      <path d="M0.0099518 0c0.0054954,0 0.0099518,0.0044564 0.0099518,0.0099518 0,0.0054954 -0.0044564,0.0099518 -0.0099518,0.0099518 -0.0054954,0 -0.0099518,-0.0044564 -0.0099518,-0.0099518 0,-0.0054954 0.0044564,-0.0099518 0.0099518,-0.0099518z"/>
     </clipPath>
  <linearGradient id="id7" gradientUnits="userSpaceOnUse" x1="0.0200542" y1="0.00800272" x2="-0.000150931" y2="0.0119002">
   <stop offset="0" style="stop-color:#39DAF4"/>
   <stop offset="1" style="stop-color:#287BFF"/>
  </linearGradient>
 </defs>
 <g id="图层_x0020_18">
  <metadata id="CorelCorpID_0Corel-Layer"/>
  <g id="_158783288">
   <path id="_153206728" class="fil0" d="M0.0099518 0c0.0054954,0 0.0099518,0.0044564 0.0099518,0.0099518 0,0.0054954 -0.0044564,0.0099518 -0.0099518,0.0099518 -0.0054954,0 -0.0099518,-0.0044564 -0.0099518,-0.0099518 0,-0.0054954 0.0044564,-0.0099518 0.0099518,-0.0099518z"/>
   <g style="clip-path:url(#id0)">
    <g>
     <polygon id="_1107014241" class="fil1" points="-0.00363617,-0.0142164 0.0235398,-0.0142164 0.0235398,0.0341204 -0.00363617,0.0341204 "/>
    </g>
    <g style="clip-path:url(#id1)">
     <g>
     </g>
     <g style="clip-path:url(#id2)">
      <image id="_110698808" transform="matrix(0.0462907 0 0 0.0456077 0.00752076 0.0124033)" x="-0.243756" y="-0.600523" width="0.605599" height="1.07624" xlink:href="icon-backup-wallet_success_Images\icon-backup-wallet_success_ImgID1.png"/>
     </g>
     <g style="clip-path:url(#id3)">
      <polygon id="_110698688" class="fil2" style="mask:url(#id4)" points="-0.00473399,-0.0367389 0.0269268,-0.0367389 0.0269268,0.0349197 -0.00473399,0.0349197 "/>
     </g>
    </g>
    <g style="clip-path:url(#id6)">
     <polygon class="fil3 str0" points="-0.00363617,-0.0142164 0.0235398,-0.0142164 0.0235398,0.0341204 -0.00363617,0.0341204 "/>
    </g>
   </g>
   <path class="fil3" d="M0.0099518 0c0.0054954,0 0.0099518,0.0044564 0.0099518,0.0099518 0,0.0054954 -0.0044564,0.0099518 -0.0099518,0.0099518 -0.0054954,0 -0.0099518,-0.0044564 -0.0099518,-0.0099518 0,-0.0054954 0.0044564,-0.0099518 0.0099518,-0.0099518z"/>
   <path id="_153206944" class="fil4" d="M0.00526265 0.0100524c-0.000276466,-0.000278073 -0.000275501,-0.000728294 2.73251e-006,-0.00100476 0.000278073,-0.000276626 0.000728455,-0.000275501 0.00100492,2.57177e-006l0.00253609 0.00253689 0.00557496 -0.00467838c0.000301058,-0.000251873 0.000750315,-0.000212171 0.00100219,8.88869e-005 0.000251873,0.000301058 0.000212171,0.000750315 -8.88869e-005,0.00100219l-0.00607292 0.00509629 -0.000498442 0.000418395 -0.000462116 -0.000462758 -0.00299853 -0.00299933z"/>
  </g>
 </g>
</svg>
