<?xml version="1.0" encoding="UTF-8"?>
<!DOCTYPE svg PUBLIC "-//W3C//DTD SVG 1.1//EN" "http://www.w3.org/Graphics/SVG/1.1/DTD/svg11.dtd">
<!-- Creator: CorelDRAW -->
<svg xmlns="http://www.w3.org/2000/svg" xml:space="preserve" width="0.178276in" height="0.178276in" style="shape-rendering:geometricPrecision; text-rendering:geometricPrecision; image-rendering:optimizeQuality; fill-rule:evenodd; clip-rule:evenodd"
viewBox="0 0 0.0164554 0.0164554"
 xmlns:xlink="http://www.w3.org/1999/xlink">
 <defs>
  <style type="text/css">
   <![CDATA[
    .fil0 {fill:#969594;fill-rule:nonzero}
   ]]>
  </style>
 </defs>
 <g id="图层_x0020_18">
  <metadata id="CorelCorpID_0Corel-Layer"/>
  <path class="fil0" d="M0.00822772 0c0.00227124,0 0.00432772,0.000921217 0.00581657,0.0024097l1.4536e-006 1.4536e-006c0.00148848,0.00148885 0.0024097,0.00354568 0.0024097,0.00581657 0,0.00227015 -0.000921217,0.00432772 -0.0024097,0.00581657l-1.4536e-006 1.4536e-006c-0.00148885,0.00148848 -0.00354532,0.0024097 -0.00581657,0.0024097 -0.00227124,0 -0.00432772,-0.000921217 -0.00581657,-0.0024097l-1.4536e-006 -1.4536e-006c-0.00148848,-0.00148885 -0.0024097,-0.00354641 -0.0024097,-0.00581657 0,-0.00227088 0.000921217,-0.00432772 0.0024097,-0.00581657l1.4536e-006 -1.4536e-006c0.00148885,-0.00148848 0.00354532,-0.0024097 0.00581657,-0.0024097zm0.00538339 0.00284432c-0.00137765,-0.00137728 -0.00328149,-0.00222945 -0.00538339,-0.00222945 -0.0021019,0 -0.00400575,0.000852171 -0.00538339,0.00222945 -0.00137728,0.00137765 -0.00222945,0.00328186 -0.00222945,0.00538339 0,0.0021019 0.000852171,0.00400575 0.00222945,0.00538339 0.00137765,0.00137728 0.00328149,0.00222945 0.00538339,0.00222945 0.0021019,0 0.00400575,-0.000852171 0.00538339,-0.00222945 0.00137728,-0.00137765 0.00222945,-0.00328149 0.00222945,-0.00538339 0,-0.00210154 -0.000852171,-0.00400575 -0.00222945,-0.00538339z"/>
  <path class="fil0" d="M0.00464206 0.0079708l0.00332874 -0.00332874 0.000256923 -0.000256923 0.000256923 0.000256923 0.00332874 0.00332874 0.000256923 0.000256923 -0.000256923 0.000256923 -0.00332874 0.00332874 -0.000256923 0.000256923 -0.000256923 -0.000256923 -0.00332874 -0.00332874 -0.000256923 -0.000256923 0.000256923 -0.000256923zm0.00358566 -0.00255797l-0.00281489 0.00281489 0.00281489 0.00281489 0.00281489 -0.00281489 -0.00281489 -0.00281489z"/>
 </g>
</svg>
