<?xml version="1.0" encoding="UTF-8"?>
<!DOCTYPE svg PUBLIC "-//W3C//DTD SVG 1.1//EN" "http://www.w3.org/Graphics/SVG/1.1/DTD/svg11.dtd">
<!-- Creator: CorelDRAW -->
<svg xmlns="http://www.w3.org/2000/svg" xml:space="preserve" width="0.286047in" height="0.274398in" style="shape-rendering:geometricPrecision; text-rendering:geometricPrecision; image-rendering:optimizeQuality; fill-rule:evenodd; clip-rule:evenodd"
viewBox="0 0 0.226899 0.217658"
 xmlns:xlink="http://www.w3.org/1999/xlink">
 <defs>
  <style type="text/css">
   <![CDATA[
    .str0 {stroke:#DEDEDD;stroke-width:0.00624585}
    .fil0 {fill:none}
    .fil1 {fill:white}
    .fil4 {fill:#3091D7}
    .fil2 {fill:url(#id4)}
    .fil3 {fill:url(#id5)}
   ]]>
  </style>
    <clipPath id="id0">
     <path d="M0.0730483 0.0245899l0.0740539 0 0 0.169266 -0.0740539 0 0 -0.169266z"/>
    </clipPath>
    <clipPath id="id1">
     <path d="M0.0751688 0.188521l0 0 0 0 0 0c0.00689229,-0.0481555 0.00765428,-0.0721333 0.0148995,-0.0889877 0.00524963,-0.0122169 0.017707,-0.0188593 0.0280064,-0.0145965l0 0c0.0102994,0.00426904 0.0144092,0.0177757 0.00948119,0.0301268 -0.00679236,0.0170387 -0.0232096,0.0345302 -0.052387,0.0734574l0 0z"/>
    </clipPath>
      <clipPath id="id2">
       <path d="M0.114677 0.136943l-0.0310387 0 0 -0.0124105c0.00163953,-0.0102369 0.00350704,-0.0182004 0.0064301,-0.024999 0.00524963,-0.0122169 0.017707,-0.0188593 0.0280064,-0.0145965l0 0c0.0102994,0.00426904 0.0144092,0.0177757 0.00948119,0.0301268 -0.00270133,0.00677987 -0.00692977,0.0136347 -0.0128789,0.0218792z"/>
      </clipPath>
      <clipPath id="id3">
       <path d="M0.0751688 0.188521l0 0 0 0 0 0c0.00689229,-0.0481555 0.00765428,-0.0721333 0.0148995,-0.0889877 0.00524963,-0.0122169 0.017707,-0.0188593 0.0280064,-0.0145965l0 0c0.0102994,0.00426904 0.0144092,0.0177757 0.00948119,0.0301268 -0.00679236,0.0170387 -0.0232096,0.0345302 -0.052387,0.0734574l0 0z"/>
      </clipPath>
  <linearGradient id="id4" gradientUnits="userSpaceOnUse" x1="0.111495" y1="0.100155" x2="0.129433" y2="0.0568528">
   <stop offset="0" style="stop-color:#2FB1D5"/>
   <stop offset="1" style="stop-color:#3276D9"/>
  </linearGradient>
  <linearGradient id="id5" gradientUnits="userSpaceOnUse" xlink:href="#id4" x1="0.112072" y1="0.0994245" x2="0.13001" y2="0.056122">
  </linearGradient>
 </defs>
 <g id="图层_x0020_18">
  <metadata id="CorelCorpID_0Corel-Layer"/>
  <path class="fil0 str0" d="M0.108828 0.00312292c0.0583706,0 0.105708,0.0473373 0.105708,0.105705 0,0.0583706 -0.0473373,0.105708 -0.105708,0.105708 -0.0583674,0 -0.105705,-0.0473373 -0.105705,-0.105708 0,-0.0583674 0.0473373,-0.105705 0.105705,-0.105705z"/>
  <g id="_322172200">
   <g style="clip-path:url(#id0)">
    <image id="_322175848" transform="matrix(1 0 0 1 0.216072 -0.687833)" x="-0.143024" y="0.712423" width="0.0740539" height="0.169266" xlink:href="icon_discover_on_Images\icon_discover_on_ImgID1.png"/>
   </g>
  </g>
  <g id="_322172104">
   <path id="_322172608" class="fil1" d="M0.0751688 0.188521l0 0 0 0 0 0c0.00689229,-0.0481555 0.00765428,-0.0721333 0.0148995,-0.0889877 0.00524963,-0.0122169 0.017707,-0.0188593 0.0280064,-0.0145965l0 0c0.0102994,0.00426904 0.0144092,0.0177757 0.00948119,0.0301268 -0.00679236,0.0170387 -0.0232096,0.0345302 -0.052387,0.0734574l0 0z"/>
   <g style="clip-path:url(#id1)">
    <g>
     <g>
     </g>
     <g style="clip-path:url(#id2)">
      <image id="_322176376" transform="matrix(1 0 0 1 0.226662 -0.744745)" x="-0.143024" y="0.771371" width="0.0599102" height="0.110317" xlink:href="icon_discover_on_Images\icon_discover_on_ImgID2.png"/>
     </g>
     <g style="clip-path:url(#id3)">
     </g>
     <path id="_169168720" class="fil2" d="M0.141918 0.0267135l0 0 0 0 0 0c-0.0291775,0.0389241 -0.0455947,0.0564187 -0.0523902,0.0734574 -0.00492485,0.0123512 -0.000815083,0.0258578 0.00948432,0.0301237l0 0c0.0102994,0.00426591 0.0227567,-0.00237967 0.0280064,-0.0145965 0.00724518,-0.0168513 0.00800717,-0.0408291 0.0148995,-0.0889846l0 0z"/>
    </g>
   </g>
   <path class="fil0" d="M0.0751688 0.188521l0 0 0 0 0 0c0.00689229,-0.0481555 0.00765428,-0.0721333 0.0148995,-0.0889877 0.00524963,-0.0122169 0.017707,-0.0188593 0.0280064,-0.0145965l0 0c0.0102994,0.00426904 0.0144092,0.0177757 0.00948119,0.0301268 -0.00679236,0.0170387 -0.0232096,0.0345302 -0.052387,0.0734574l0 0z"/>
   <path id="_322172008" class="fil3" d="M0.142496 0.0259796l0 3.12292e-006 0 -3.12292e-006 0 3.12292e-006c-0.0291775,0.0389241 -0.0455947,0.0564156 -0.0523902,0.0734574 -0.00492485,0.0123512 -0.000815083,0.0258547 0.00948432,0.0301237l0 0c0.0102994,0.00426591 0.0227567,-0.00237967 0.0280064,-0.0145965 0.00724518,-0.0168513 0.00800717,-0.0408291 0.0148995,-0.0889846l0 -3.12292e-006z"/>
   <path id="_322172560" class="fil1" d="M0.111135 0.101692c-0.00323223,-0.00133973 -0.00693601,0.000193621 -0.00827575,0.00342585 -0.00133973,0.00323223 0.000196744,0.00693913 0.00342897,0.00827575 0.0032291,0.00133973 0.00693601,-0.000196744 0.00827575,-0.00342585 0.00133661,-0.00323223 -0.000196744,-0.00693913 -0.00342897,-0.00827575z"/>
  </g>
  <path class="fil4" d="M0.213065 0.0792629c0.00763867,0 0.0138345,0.00619588 0.0138345,0.0138314 0,0.00763867 -0.00619588,0.0138314 -0.0138345,0.0138314 -0.00763555,0 -0.0138283,-0.00619276 -0.0138283,-0.0138314 0,-0.00763555 0.00619276,-0.0138314 0.0138283,-0.0138314z"/>
 </g>
</svg>
