<?xml version="1.0" encoding="UTF-8"?>
<!DOCTYPE svg PUBLIC "-//W3C//DTD SVG 1.1//EN" "http://www.w3.org/Graphics/SVG/1.1/DTD/svg11.dtd">
<!-- Creator: CorelDRAW -->
<svg xmlns="http://www.w3.org/2000/svg" xml:space="preserve" width="0.179382in" height="0.191484in" style="shape-rendering:geometricPrecision; text-rendering:geometricPrecision; image-rendering:optimizeQuality; fill-rule:evenodd; clip-rule:evenodd"
viewBox="0 0 0.00439597 0.00469256"
 xmlns:xlink="http://www.w3.org/1999/xlink">
 <defs>
  <style type="text/css">
   <![CDATA[
    .fil2 {fill:white}
    .fil1 {fill:url(#id0)}
    .fil0 {fill:url(#id1)}
    .fil3 {fill:url(#id2);fill-rule:nonzero}
   ]]>
  </style>
  <linearGradient id="id0" gradientUnits="userSpaceOnUse" x1="0.000512412" y1="0.00117138" x2="0.00236967" y2="0.00366918">
   <stop offset="0" style="stop-color:#2FB1D5"/>
   <stop offset="1" style="stop-color:#3276D9"/>
  </linearGradient>
  <linearGradient id="id1" gradientUnits="userSpaceOnUse" xlink:href="#id0" x1="0.00399548" y1="0.00340116" x2="0.00191525" y2="0.00114272">
  </linearGradient>
  <linearGradient id="id2" gradientUnits="userSpaceOnUse" xlink:href="#id0" x1="0.00293669" y1="0.00240692" x2="0.0022345" y2="0.00161249">
  </linearGradient>
 </defs>
 <g id="图层_x0020_18">
  <metadata id="CorelCorpID_0Corel-Layer"/>
  <g id="_154502208">
   <g>
    <path id="_154494696" class="fil0" d="M0.00298503 0.000293303c0.000824914,0.000316651 0.00141094,0.00111629 0.00141094,0.00205264 0,0.00121373 -0.000984301,0.00219794 -0.00219794,0.00219794 -0.000109796,0 -0.000217662,-8.00794e-006 -0.000323116,-2.36379e-005 0.00081845,-0.000272077 0.00100707,-0.000706435 0.00100707,-0.000706435l-9.64812e-008 -9.64812e-008c-0.000207531,9.68671e-005 -0.000438989,0.000150993 -0.000683183,0.000150993 -2.17083e-005,0 -4.34165e-005,-4.82406e-007 -6.49318e-005,-1.25426e-006l9.64812e-007 -7.7185e-007c2.09364e-005,7.7185e-007 4.20658e-005,1.35074e-006 6.32917e-005,1.35074e-006 0.000893416,0 0.00161799,-0.000724477 0.00161799,-0.00161809 0,-0.000760754 -0.00052534,-0.00139898 -0.00123293,-0.00157178l-5.78887e-006 -1.44722e-006 -5.69239e-006 -1.35074e-006 -5.88535e-006 -1.35074e-006 -5.78887e-006 -1.35074e-006 -5.78887e-006 -1.35074e-006 -5.88535e-006 -1.25426e-006 -5.88535e-006 -1.35074e-006 -5.78887e-006 -1.25426e-006 -5.78887e-006 -1.15777e-006 -5.98183e-006 -1.25426e-006c-0.00010555,-2.16118e-005 -0.000214671,-3.31895e-005 -0.000326782,-3.31895e-005 -0.000244097,0 -0.000475652,5.4126e-005 -0.000683183,0.000150993l-9.64812e-008 -9.64812e-008c0,0 0.000302854,-0.000697945 0.00180796,-0.000878751 -0.000149353,0.00013517 -0.000257798,0.000227792 -0.000337684,0.000293303z"/>
    <path id="_154494576" class="fil1" d="M0.00288199 0.00381381c0,0 -0.000302758,0.000697945 -0.00180796,0.000878751 0.000149739,-0.000135363 0.000258184,-0.000228178 0.00033807,-0.000293689 -0.000825783,-0.000316265 -0.0014121,-0.00111619 -0.0014121,-0.00205293 0,-0.00121373 0.000984301,-0.00219794 0.00219803,-0.00219794 0.000110374,0 0.000218819,8.2009e-006 0.000324949,2.39273e-005 -0.000819415,0.00027227 -0.00100823,0.000706821 -0.00100823,0.000706821l9.64812e-008 9.64812e-008c-0.000552162,0.000257701 -0.000934903,0.000818161 -0.000934903,0.00146709 0,0.000832729 0.000629057,0.00151852 0.00143805,0.00160805l-3.85925e-007 5.78887e-007c5.94324e-005,6.6572e-006 0.000119926,1.01305e-005 0.000181095,1.01305e-005 0.000244194,0 0.000475652,-5.4126e-005 0.000683183,-0.000150993l9.64812e-008 9.64812e-008zm-0.00062761 -0.00308499l0 9.64812e-008 -1.73666e-006 -9.64812e-008 1.73666e-006 0z"/>
   </g>
   <path id="_154502232" class="fil2" d="M0.00219784 0.000528813c0.00100369,0 0.00181761,0.000813915 0.00181761,0.00181742 0,0.00100369 -0.000813915,0.00181761 -0.00181761,0.00181761 -0.0010035,0 -0.00181742,-0.000813915 -0.00181742,-0.00181761 0,-0.0010035 0.000813915,-0.00181742 0.00181742,-0.00181742z"/>
   <path id="_154501944" class="fil3" d="M0.00219861 0.00121653l9.64812e-008 0c1.25426e-005,0 2.48921e-005,2.70147e-006 3.6084e-005,7.23609e-006l2.89444e-007 1.92962e-007c1.19637e-005,4.92054e-006 2.27696e-005,1.22531e-005 3.12599e-005,2.07435e-005 8.68331e-006,8.68331e-006 1.57264e-005,1.93927e-005 2.0647e-005,3.11634e-005l9.64812e-008 0c4.72758e-006,1.13848e-005 7.52553e-006,2.37344e-005 7.52553e-006,3.65664e-005l0 0.000970794 0.000725635 0.00033836 -9.64812e-008 1.92962e-007c1.12883e-005,5.20998e-006 2.10329e-005,1.3025e-005 2.8462e-005,2.23836e-005 7.52553e-006,9.45516e-006 1.32179e-005,2.07435e-005 1.62088e-005,3.24177e-005l0 1.92962e-007c2.79795e-006,1.09024e-005 3.66629e-006,2.3059e-005 2.41203e-006,3.49262e-005 -7.7185e-007,7.62201e-006 -2.60499e-006,1.563e-005 -5.30647e-006,2.33484e-005l0 1.5437e-006 -3.85925e-006 8.29738e-006c-4.82406e-006,1.06129e-005 -1.17707e-005,2.0647e-005 -1.97786e-005,2.87514e-005l-2.89444e-007 2.89444e-007c-8.10442e-006,8.39386e-006 -1.7849e-005,1.5437e-005 -2.8269e-005,2.02611e-005 -1.09024e-005,5.01702e-006 -2.26731e-005,8.10442e-006 -3.45403e-005,8.39386e-006l-9.64812e-008 0c-1.20601e-005,3.85925e-007 -2.45062e-005,-1.92962e-006 -3.5891e-005,-7.23609e-006l-9.64812e-008 9.64812e-008 -0.000755737 -0.000352446c-8.39386e-006,-1.44722e-006 -1.66912e-005,-3.95573e-006 -2.44097e-005,-7.52553e-006l-3.85925e-007 -1.92962e-007c-1.0227e-005,-4.72758e-006 -1.98751e-005,-1.13848e-005 -2.76901e-005,-1.91998e-005 -8.58683e-006,-8.58683e-006 -1.563e-005,-1.92962e-005 -2.05505e-005,-3.10669e-005l-9.64812e-008 0c-4.72758e-006,-1.13848e-005 -7.52553e-006,-2.40238e-005 -7.52553e-006,-3.65664e-005l0 -0.00103602c0,-1.25426e-005 2.70147e-006,-2.48921e-005 7.23609e-006,-3.6084e-005l1.92962e-007 -2.89444e-007c4.82406e-006,-1.17707e-005 1.21566e-005,-2.24801e-005 2.05505e-005,-3.10669e-005l4.82406e-007 -4.82406e-007c8.58683e-006,-8.49035e-006 1.93927e-005,-1.57264e-005 3.10669e-005,-2.05505e-005l2.89444e-007 -1.92962e-007c1.11918e-005,-4.53462e-006 2.37344e-005,-7.23609e-006 3.6084e-005,-7.23609e-006z"/>
  </g>
 </g>
</svg>
