<?xml version="1.0" encoding="UTF-8"?>
<!DOCTYPE svg PUBLIC "-//W3C//DTD SVG 1.1//EN" "http://www.w3.org/Graphics/SVG/1.1/DTD/svg11.dtd">
<!-- Creator: CorelDRAW -->
<svg xmlns="http://www.w3.org/2000/svg" xml:space="preserve" width="0.212661in" height="0.193331in" style="shape-rendering:geometricPrecision; text-rendering:geometricPrecision; image-rendering:optimizeQuality; fill-rule:evenodd; clip-rule:evenodd"
viewBox="0 0 0.00510909 0.00464468"
 xmlns:xlink="http://www.w3.org/1999/xlink">
 <defs>
  <style type="text/css">
   <![CDATA[
    .fil0 {fill:url(#id0);fill-rule:nonzero}
   ]]>
  </style>
  <linearGradient id="id0" gradientUnits="userSpaceOnUse" x1="0.00514068" y1="0.0018689" x2="-3.15913e-005" y2="0.00277578">
   <stop offset="0" style="stop-color:#2FB1D5"/>
   <stop offset="1" style="stop-color:#3276D9"/>
  </linearGradient>
 </defs>
 <g id="图层_x0020_18">
  <metadata id="CorelCorpID_0Corel-Layer"/>
  <path class="fil0" d="M0.000829792 0l0.00378074 0c0.000137337,0 0.000262378,6.13855e-005 0.000352896,0.000160227 8.9761e-005,9.79898e-005 0.000145661,0.000233341 0.000145661,0.00038165l0 0.00356093c0,0.000148309 -5.58996e-005,0.000283565 -0.000145661,0.00038165 -9.05176e-005,9.88411e-005 -0.000215559,0.000160227 -0.000352896,0.000160227l-0.00378074 0c-0.000137243,0 -0.000262378,-6.13855e-005 -0.000352896,-0.000160227 -8.9761e-005,-9.80844e-005 -0.000145661,-0.000233341 -0.000145661,-0.00038165l0 -0.000776352 0.000181981 0 0 0.000776352c0,9.63819e-005 3.60368e-005,0.000183967 9.38281e-005,0.000247055 5.71292e-005,6.23314e-005 0.000136108,0.000101206 0.000222747,0.000101206l0.00378074 0c8.66397e-005,0 0.000165618,-3.88743e-005 0.000222747,-0.000101206 5.77913e-005,-6.30881e-005 9.38281e-005,-0.000150674 9.38281e-005,-0.000247055l0 -0.00356093c0,-9.63819e-005 -3.60368e-005,-0.000183967 -9.38281e-005,-0.000247055 -5.71292e-005,-6.23314e-005 -0.000136108,-0.000101206 -0.000222747,-0.000101206l-0.00378074 0c-8.66397e-005,0 -0.000165618,3.88743e-005 -0.000222747,0.000101206 -5.77913e-005,6.30881e-005 -9.38281e-005,0.000150674 -9.38281e-005,0.000247055l0 0.000776257 -0.000181981 0 0 -0.000776257c0,-0.000148309 5.58996e-005,-0.00028366 0.000145661,-0.00038165 9.05176e-005,-9.88411e-005 0.000215653,-0.000160227 0.000352896,-0.000160227zm0.00189037 0.00116765c0.000167888,0 0.000320264,6.81956e-005 0.000430361,0.000178292 0.000110002,0.000110002 0.000178292,0.000262284 0.000178292,0.000430266 0,0.000167888 -6.81956e-005,0.000320264 -0.000178292,0.000430361l-3.78339e-007 0c-3.48072e-005,3.48072e-005 -7.38707e-005,6.54527e-005 -0.000116339,9.10852e-005 0.000189453,0.000128257 0.000389879,0.00039404 0.000592952,0.000864505l-0.000173658 7.4722e-005c-0.000754408,-0.00174745 -0.00146313,-1.10664e-005 -0.00146512,-6.2426e-006l-0.000174414 -7.16953e-005c1.2296e-006,-3.1213e-006 0.000244975,-0.000600046 0.000611491,-0.000850412 -4.97516e-005,-2.76188e-005 -9.52469e-005,-6.20476e-005 -0.000135162,-0.000101962 -0.000110097,-0.000110097 -0.000178292,-0.000262473 -0.000178292,-0.000430361 0,-0.000167699 6.82902e-005,-0.000319791 0.000178292,-0.000429888 0.000110286,-0.00011038 0.000262567,-0.000178671 0.000430266,-0.000178671zm0.000296618 0.000312035c-7.5857e-005,-7.5857e-005 -0.000180846,-0.000122866 -0.000296618,-0.000122866 -0.000115961,0 -0.00022095,4.68195e-005 -0.000296523,0.000122487 -7.5857e-005,7.5857e-005 -0.000122866,0.000180941 -0.000122866,0.000296902 0,0.000115772 4.70086e-005,0.000220761 0.000122866,0.000296618 7.57624e-005,7.57624e-005 0.000180752,0.000122866 0.000296523,0.000122866 0.000115961,0 0.00022095,-4.69141e-005 0.000296807,-0.000122676l-1.8917e-007 -1.8917e-007c7.5857e-005,-7.5857e-005 0.000122866,-0.000180846 0.000122866,-0.000296618 0,-0.000115772 -4.71032e-005,-0.000220761 -0.000122866,-0.000296523zm-0.00292333 0.000749206l0.000626624 0c5.14541e-005,0 9.34498e-005,4.19956e-005 9.34498e-005,9.34498e-005l0 0c0,5.14541e-005 -4.19956e-005,9.34498e-005 -9.34498e-005,9.34498e-005l-0.000626624 0c-5.14541e-005,0 -9.34498e-005,-4.19956e-005 -9.34498e-005,-9.34498e-005l0 0c0,-5.14541e-005 4.19956e-005,-9.34498e-005 9.34498e-005,-9.34498e-005zm0 0.000565144l0.000626624 0c5.14541e-005,0 9.34498e-005,4.19956e-005 9.34498e-005,9.34498e-005l0 0c0,5.14541e-005 -4.19956e-005,9.34498e-005 -9.34498e-005,9.34498e-005l-0.000626624 0c-5.14541e-005,0 -9.34498e-005,-4.19956e-005 -9.34498e-005,-9.34498e-005l0 0c0,-5.14541e-005 4.19956e-005,-9.34498e-005 9.34498e-005,-9.34498e-005zm0 -0.00113038l0.000626624 0c5.14541e-005,0 9.34498e-005,4.19956e-005 9.34498e-005,9.34498e-005l0 0c0,5.14541e-005 -4.19956e-005,9.34498e-005 -9.34498e-005,9.34498e-005l-0.000626624 0c-5.14541e-005,0 -9.34498e-005,-4.19956e-005 -9.34498e-005,-9.34498e-005l0 0c0,-5.14541e-005 4.19956e-005,-9.34498e-005 9.34498e-005,-9.34498e-005z"/>
 </g>
</svg>
