<?xml version="1.0" encoding="UTF-8"?>
<!DOCTYPE svg PUBLIC "-//W3C//DTD SVG 1.1//EN" "http://www.w3.org/Graphics/SVG/1.1/DTD/svg11.dtd">
<!-- Creator: CorelDRAW -->
<svg xmlns="http://www.w3.org/2000/svg" xml:space="preserve" width="0.160559in" height="0.160488in" style="shape-rendering:geometricPrecision; text-rendering:geometricPrecision; image-rendering:optimizeQuality; fill-rule:evenodd; clip-rule:evenodd"
viewBox="0 0 0.000459189 0.000458986"
 xmlns:xlink="http://www.w3.org/1999/xlink">
 <defs>
  <style type="text/css">
   <![CDATA[
    .fil1 {fill:#72706F}
    .fil0 {fill:#72706F;fill-rule:nonzero}
   ]]>
  </style>
 </defs>
 <g id="图层_x0020_18">
  <metadata id="CorelCorpID_0Corel-Layer"/>
  <g id="_52286240">
   <g>
    <path id="_52288376" class="fil0" d="M1.21041e-005 0l0.000127706 0 1.21041e-005 0 0 1.21041e-005 0 0.000127706 0 1.21041e-005 -1.21041e-005 0 -0.000127706 0 -1.21041e-005 0 0 -1.21041e-005 0 -0.000127706 0 -1.21041e-005 1.21041e-005 0zm0.000115602 2.42081e-005l-0.000103498 0 0 0.000103498 0.000103498 0 0 -0.000103498z"/>
    <polygon id="_52288112" class="fil1" points="4.90243e-005,4.9272e-005 0.000102879,4.9272e-005 0.000102879,0.000102654 4.90243e-005,0.000102654 "/>
    <path id="_52287824" class="fil0" d="M1.21041e-005 0.000307072l0.000127706 0 1.21041e-005 0 0 1.21041e-005 0 0.000127706 0 1.21041e-005 -1.21041e-005 0 -0.000127706 0 -1.21041e-005 0 0 -1.21041e-005 0 -0.000127706 0 -1.21041e-005 1.21041e-005 0zm0.000115602 2.42081e-005l-0.000103498 0 0 0.000103498 0.000103498 0 0 -0.000103498z"/>
    <polygon id="_52288088" class="fil1" points="4.90243e-005,0.000356344 0.000102879,0.000356344 0.000102879,0.000409726 4.90243e-005,0.000409726 "/>
    <path id="_52287728" class="fil0" d="M0.000319379 0l0.000127706 0 1.21041e-005 0 0 1.21041e-005 0 0.000127706 0 1.21041e-005 -1.21041e-005 0 -0.000127706 0 -1.21041e-005 0 0 -1.21041e-005 0 -0.000127706 0 -1.21041e-005 1.21041e-005 0zm0.000115602 2.42081e-005l-0.000103498 0 0 0.000103498 0.000103498 0 0 -0.000103498z"/>
    <polygon id="_52287680" class="fil1" points="0.000356299,4.9272e-005 0.000410154,4.9272e-005 0.000410154,0.000102654 0.000356299,0.000102654 "/>
    <path id="_52287392" class="fil0" d="M0.000319379 0.000307072l0.000127706 0 1.21041e-005 0 0 1.21041e-005 0 0.000127706 0 1.21041e-005 -1.21041e-005 0 -0.000127706 0 -1.21041e-005 0 0 -1.21041e-005 0 -0.000127706 0 -1.21041e-005 1.21041e-005 0zm0.000115602 2.42081e-005l-0.000103498 0 0 0.000103498 0.000103498 0 0 -0.000103498z"/>
    <polygon id="_52287296" class="fil1" points="0.000356299,0.000356344 0.000410154,0.000356344 0.000410154,0.000409726 0.000356299,0.000409726 "/>
   </g>
   <g>
    <polygon id="_52287752" class="fil1" points="0.000306914,0.000203956 0.000358472,0.000203956 0.000358472,0.000255053 0.000306914,0.000255053 "/>
    <polygon id="_52287152" class="fil1" points="0.000100706,0.000203956 0.000152264,0.000203956 0.000152264,0.000255053 0.000100706,0.000255053 "/>
    <polygon id="_52287176" class="fil1" points="0.00020426,0.000203956 0.000255818,0.000203956 0.000255818,0.000255053 0.00020426,0.000255053 "/>
    <polygon id="_52287416" class="fil1" points="0.000203821,0.000203956 0.000255379,0.000203956 0.000255379,0.000255053 0.000203821,0.000255053 "/>
    <polygon id="_52287368" class="fil1" points="4.91707e-005,0.000152827 0.000100728,0.000152827 0.000100728,0.000203923 4.91707e-005,0.000203923 "/>
    <polygon id="_52287440" class="fil1" points="0.000358461,0.000152827 0.000410007,0.000152827 0.000410007,0.000203923 0.000358461,0.000203923 "/>
    <polygon id="_52286480" class="fil1" points="0.000255357,0.000152827 0.000306914,0.000152827 0.000306914,0.000203923 0.000255357,0.000203923 "/>
    <polygon id="_52286312" class="fil1" points="0.000152264,0.000152827 0.000203821,0.000152827 0.000203821,0.000203923 0.000152264,0.000203923 "/>
    <polygon id="_52287008" class="fil1" points="0.000203821,0.000306171 0.000255379,0.000306171 0.000255379,0.000357278 0.000203821,0.000357278 "/>
    <polygon id="_52286792" class="fil1" points="0.000203821,0.000101731 0.000255379,0.000101731 0.000255379,0.000152827 0.000203821,0.000152827 "/>
    <polygon id="_52286504" class="fil1" points="4.91707e-005,0.000255075 0.000100728,0.000255075 0.000100728,0.000306171 4.91707e-005,0.000306171 "/>
    <polygon id="_52286984" class="fil1" points="0.000358461,0.000255075 0.000410007,0.000255075 0.000410007,0.000306171 0.000358461,0.000306171 "/>
    <polygon id="_52286744" class="fil1" points="0.000255357,0.000255075 0.000306914,0.000255075 0.000306914,0.000306171 0.000255357,0.000306171 "/>
    <polygon id="_52286888" class="fil1" points="0.000152264,0.000255075 0.000203821,0.000255075 0.000203821,0.000306171 0.000152264,0.000306171 "/>
    <polygon id="_52286432" class="fil1" points="0.000152264,0.00035729 0.000203821,0.00035729 0.000203821,0.000408386 0.000152264,0.000408386 "/>
    <polygon id="_52286912" class="fil1" points="0.000255357,0.00035729 0.000306914,0.00035729 0.000306914,0.000408386 0.000255357,0.000408386 "/>
    <polygon id="_52286336" class="fil1" points="0.000255357,5.06907e-005 0.000306914,5.06907e-005 0.000306914,0.000101787 0.000255357,0.000101787 "/>
    <polygon id="_52285520" class="fil1" points="0.000152264,5.06007e-005 0.000203821,5.06007e-005 0.000203821,0.000101697 0.000152264,0.000101697 "/>
   </g>
  </g>
 </g>
</svg>
