<?xml version="1.0" encoding="UTF-8"?>
<!DOCTYPE svg PUBLIC "-//W3C//DTD SVG 1.1//EN" "http://www.w3.org/Graphics/SVG/1.1/DTD/svg11.dtd">
<!-- Creator: CorelDRAW -->
<svg xmlns="http://www.w3.org/2000/svg" xml:space="preserve" width="0.0580709in" height="0.057315in" style="shape-rendering:geometricPrecision; text-rendering:geometricPrecision; image-rendering:optimizeQuality; fill-rule:evenodd; clip-rule:evenodd"
viewBox="0 0 0.00203295 0.00200648"
 xmlns:xlink="http://www.w3.org/1999/xlink">
 <defs>
  <style type="text/css">
   <![CDATA[
    .str0 {stroke:white;stroke-width:5.83008e-005}
    .fil1 {fill:white}
    .fil0 {fill:white;fill-rule:nonzero}
   ]]>
  </style>
 </defs>
 <g id="图层_x0020_18">
  <metadata id="CorelCorpID_0Corel-Layer"/>
  <g id="_155190880">
   <path id="_155190904" class="fil0 str0" d="M0.000120185 2.92193e-005l0.000628628 0 0 0.000155469 -0.000550894 0 0 0.000545105 -0.000155469 0 0 -0.00062284 0 -7.77343e-005 7.77343e-005 0zm0.00117539 0l0.000617327 0 7.77343e-005 0 0 7.77343e-005 0 0.00062284 -0.000155469 0 0 -0.000545105 -0.000539592 0 0 -0.000155469zm0.000695061 0.00124747l0 0.00062284 0 7.77343e-005 -7.77343e-005 0 -0.000617327 0 0 -0.000155469 0.000539592 0 0 -0.000545105 0.000155469 0zm-0.00124182 0.000700574l-0.000628628 0 -7.77343e-005 0 0 -7.77343e-005 0 -0.00062284 0.000155469 0 0 0.000545105 0.000550894 0 0 0.000155469z"/>
   <rect id="_155191048" class="fil1 str0" x="2.92122e-005" y="0.000917342" width="0.00197452" height="0.000171877"/>
  </g>
 </g>
</svg>
