<?xml version="1.0" encoding="UTF-8"?>
<!DOCTYPE svg PUBLIC "-//W3C//DTD SVG 1.1//EN" "http://www.w3.org/Graphics/SVG/1.1/DTD/svg11.dtd">
<!-- Creator: CorelDRAW -->
<svg xmlns="http://www.w3.org/2000/svg" xml:space="preserve" width="0.065685in" height="0.072in" style="shape-rendering:geometricPrecision; text-rendering:geometricPrecision; image-rendering:optimizeQuality; fill-rule:evenodd; clip-rule:evenodd"
viewBox="0 0 0.000466904 0.000511792"
 xmlns:xlink="http://www.w3.org/1999/xlink">
 <defs>
  <style type="text/css">
   <![CDATA[
    .fil0 {fill:#C2C1C1}
   ]]>
  </style>
 </defs>
 <g id="图层_x0020_18">
  <metadata id="CorelCorpID_0Corel-Layer"/>
  <path class="fil0" d="M0.000224161 8.67539e-007l-3.3862e-006 8.39554e-007 -2.54665e-006 8.39554e-007 -1.70709e-006 8.39554e-007 -1.67911e-006 8.39554e-007 -1.70709e-006 8.67539e-007 -1.67911e-006 8.39554e-007 -1.67911e-006 8.39554e-007 -8.39554e-007 8.39554e-007 -8.67539e-007 8.67539e-007 -1.67911e-006 8.39554e-007 -8.39554e-007 8.39554e-007 -8.67539e-007 8.39554e-007 -8.39554e-007 8.67539e-007 -8.39554e-007 8.39554e-007 -8.39554e-007 8.39554e-007 0 1.67911e-006 -1.70709e-006 0 -8.39554e-007 1.70709e-006 -8.67539e-007 8.39554e-007 -8.39554e-007 1.67911e-006 -8.39554e-007 8.67539e-007 -8.39554e-007 2.54665e-006 -8.39554e-007 1.67911e-006 -8.39554e-007 1.70709e-006 -8.39554e-007 1.67911e-006 -8.67539e-007 3.35822e-006 -8.39554e-007 4.25374e-006 -8.39554e-007 4.22576e-006 -2.54665e-006 8.39554e-007 -2.54665e-006 8.67539e-007 -2.54665e-006 8.39554e-007 -2.51866e-006 8.39554e-007 -3.3862e-006 8.39554e-007 -2.54665e-006 8.67539e-007 -2.51866e-006 8.11569e-007 -1.70709e-006 8.67539e-007 -2.54665e-006 8.39554e-007 -2.51866e-006 8.39554e-007 -1.67911e-006 8.39554e-007 -1.70709e-006 8.67539e-007 -2.54665e-006 8.39554e-007 -1.67911e-006 8.39554e-007 -1.70709e-006 8.39554e-007 -1.67911e-006 8.67539e-007 -2.51866e-006 8.39554e-007 -1.70709e-006 8.39554e-007 -8.39554e-007 8.67539e-007 -1.70709e-006 8.39554e-007 -1.67911e-006 8.11569e-007 -1.70709e-006 8.67539e-007 -8.39554e-007 8.39554e-007 -1.70709e-006 8.39554e-007 -1.67911e-006 8.39554e-007 -1.67911e-006 8.67539e-007 -8.39554e-007 8.39554e-007 -1.70709e-006 8.39554e-007 -8.39554e-007 8.67539e-007 -1.70709e-006 8.39554e-007 -8.39554e-007 8.39554e-007 -1.67911e-006 8.39554e-007 -8.67539e-007 8.67539e-007 -8.39554e-007 8.39554e-007 -1.70709e-006 8.39554e-007 -8.39554e-007 8.39554e-007 -8.39554e-007 8.67539e-007 -1.70709e-006 8.39554e-007 -8.11569e-007 8.39554e-007 -8.39554e-007 8.39554e-007 -1.70709e-006 8.39554e-007 -8.39554e-007 8.39554e-007 -8.67539e-007 8.67539e-007 -8.39554e-007 8.39554e-007 -1.67911e-006 8.39554e-007 -8.67539e-007 8.39554e-007 -8.39554e-007 8.67539e-007 -8.39554e-007 8.39554e-007 -8.39554e-007 8.39554e-007 -8.67539e-007 8.39554e-007 -8.39554e-007 8.67539e-007 -8.39554e-007 8.39554e-007 -1.67911e-006 8.39554e-007 0 1.67911e-006 -1.70709e-006 0 -8.39554e-007 8.67539e-007 -8.39554e-007 8.39554e-007 -8.39554e-007 8.39554e-007 -8.67539e-007 8.67539e-007 0 1.67911e-006 -1.67911e-006 0 0 1.67911e-006 -1.70709e-006 0 -8.39554e-007 1.70709e-006 -8.39554e-007 8.39554e-007 -8.39554e-007 8.39554e-007 -8.67539e-007 8.67539e-007 -8.39554e-007 8.39554e-007 -8.39554e-007 8.39554e-007 0 1.70709e-006 -1.67911e-006 0 -8.39554e-007 1.65112e-006 -8.67539e-007 8.67539e-007 -8.39554e-007 8.39554e-007 -8.39554e-007 1.70709e-006 -8.39554e-007 8.39554e-007 -8.67539e-007 1.67911e-006 -8.39554e-007 8.67539e-007 -8.39554e-007 8.39554e-007 -8.67539e-007 1.67911e-006 -8.39554e-007 8.67539e-007 -8.39554e-007 8.39554e-007 -8.39554e-007 1.67911e-006 -8.67539e-007 1.70709e-006 -8.39554e-007 8.39554e-007 -8.39554e-007 8.67539e-007 -8.39554e-007 1.65112e-006 -8.67539e-007 8.67539e-007 -8.11569e-007 1.67911e-006 -8.67539e-007 1.70709e-006 -8.39554e-007 1.67911e-006 -8.39554e-007 1.70709e-006 -8.39554e-007 8.39554e-007 -8.67539e-007 1.70709e-006 -8.39554e-007 1.67911e-006 -8.39554e-007 1.67911e-006 -8.39554e-007 8.39554e-007 -8.67539e-007 2.54665e-006 -8.39554e-007 1.70709e-006 -8.39554e-007 2.51866e-006 -8.39554e-007 8.67539e-007 -8.67539e-007 2.51866e-006 -8.39554e-007 1.67911e-006 -8.39554e-007 1.70709e-006 -8.39554e-007 2.54665e-006 -8.39554e-007 2.51866e-006 -8.39554e-007 1.70709e-006 -8.67539e-007 2.54665e-006 -8.39554e-007 2.51866e-006 -8.39554e-007 2.54665e-006 -8.39554e-007 3.3862e-006 -8.67539e-007 3.3862e-006 -8.39554e-007 3.3862e-006 -8.39554e-007 2.51866e-006 -8.39554e-007 5.0933e-006 -8.67539e-007 4.22576e-006 -8.39554e-007 5.90486e-006 -8.39554e-007 6.7724e-006 -8.67539e-007 1.35448e-005 0 0.00011334 0 6.7724e-006 0 4.25374e-006 -5.90486e-006 0 -5.06531e-006 8.11569e-007 -3.3862e-006 8.67539e-007 -2.54665e-006 8.39554e-007 -2.51866e-006 8.39554e-007 -1.70709e-006 8.39554e-007 -2.54665e-006 8.39554e-007 -1.67911e-006 8.67539e-007 -8.39554e-007 8.39554e-007 -1.70709e-006 8.39554e-007 -8.39554e-007 8.39554e-007 -1.67911e-006 8.67539e-007 -8.67539e-007 8.39554e-007 -1.67911e-006 8.39554e-007 -8.39554e-007 8.67539e-007 -8.39554e-007 8.39554e-007 -8.67539e-007 8.39554e-007 -8.39554e-007 8.39554e-007 -8.39554e-007 8.67539e-007 -8.67539e-007 8.11569e-007 -8.39554e-007 8.67539e-007 -8.39554e-007 8.39554e-007 -8.39554e-007 8.39554e-007 -8.67539e-007 8.39554e-007 -8.39554e-007 8.67539e-007 -8.39554e-007 1.67911e-006 -8.39554e-007 8.39554e-007 -8.67539e-007 8.67539e-007 -8.11569e-007 1.67911e-006 -8.39554e-007 1.70709e-006 -8.67539e-007 1.67911e-006 -8.39554e-007 8.39554e-007 -8.39554e-007 1.67911e-006 -8.67539e-007 2.54665e-006 -8.39554e-007 1.70709e-006 -8.39554e-007 2.51866e-006 -8.39554e-007 3.41419e-006 -8.67539e-007 4.22576e-006 0 4.65113e-005 0.00046696 0 0 -4.31531e-005 -8.67539e-007 -5.06531e-006 -8.39554e-007 -3.3862e-006 -8.39554e-007 -3.3862e-006 -8.39554e-007 -2.54665e-006 -8.67539e-007 -1.67911e-006 -8.39554e-007 -2.51866e-006 -8.39554e-007 -1.70709e-006 -8.67539e-007 -1.67911e-006 -8.39554e-007 -8.67539e-007 -8.11569e-007 -1.67911e-006 -8.67539e-007 -8.39554e-007 -8.39554e-007 -1.70709e-006 -8.39554e-007 -8.39554e-007 -8.39554e-007 -1.70709e-006 -1.70709e-006 0 0 -1.67911e-006 -8.39554e-007 -8.39554e-007 -8.39554e-007 -8.67539e-007 -8.67539e-007 -8.11569e-007 -8.39554e-007 -8.67539e-007 -8.39554e-007 -8.39554e-007 -1.70709e-006 -8.39554e-007 -8.39554e-007 -8.39554e-007 -8.39554e-007 -8.67539e-007 -1.70709e-006 -8.39554e-007 -8.11569e-007 -8.39554e-007 -8.67539e-007 -8.67539e-007 -1.67911e-006 -8.39554e-007 -1.70709e-006 -8.39554e-007 -8.39554e-007 -8.39554e-007 -1.70709e-006 -8.67539e-007 -1.67911e-006 -8.39554e-007 -2.54665e-006 -8.39554e-007 -2.51866e-006 -8.39554e-007 -2.54665e-006 -8.39554e-007 -3.3862e-006 -8.67539e-007 -5.0933e-006 -8.11569e-007 -5.90486e-006 0 0 -0.000131138 -8.39554e-007 -1.01586e-005 -8.39554e-007 -6.74442e-006 -8.67539e-007 -4.25374e-006 -8.39554e-007 -5.06531e-006 -8.39554e-007 -4.22576e-006 -8.39554e-007 -2.54665e-006 -8.67539e-007 -3.3862e-006 -8.39554e-007 -2.54665e-006 -8.39554e-007 -3.3862e-006 -8.39554e-007 -2.51866e-006 -8.67539e-007 -2.54665e-006 -8.39554e-007 -1.67911e-006 -8.39554e-007 -2.54665e-006 -8.39554e-007 -2.54665e-006 -8.39554e-007 -2.51866e-006 -8.39554e-007 -1.67911e-006 -8.67539e-007 -1.70709e-006 -8.39554e-007 -2.54665e-006 -8.39554e-007 -1.67911e-006 -8.39554e-007 -1.70709e-006 -8.67539e-007 -2.54665e-006 -8.39554e-007 -8.39554e-007 -8.39554e-007 -1.67911e-006 -8.39554e-007 -1.70709e-006 -8.67539e-007 -1.67911e-006 -8.39554e-007 -1.67911e-006 -8.39554e-007 -1.70709e-006 -8.39554e-007 -1.67911e-006 -8.67539e-007 -8.67539e-007 -8.11569e-007 -1.67911e-006 -8.67539e-007 -8.39554e-007 -8.39554e-007 -1.70709e-006 -8.39554e-007 -8.11569e-007 -8.39554e-007 -1.70709e-006 -8.67539e-007 -1.70709e-006 -8.39554e-007 -8.39554e-007 -8.39554e-007 -8.39554e-007 -8.39554e-007 -1.70709e-006 -8.67539e-007 -8.39554e-007 -8.39554e-007 -1.67911e-006 -8.39554e-007 -8.67539e-007 -8.67539e-007 -8.39554e-007 -8.39554e-007 -1.67911e-006 -8.39554e-007 -8.67539e-007 -8.39554e-007 -8.39554e-007 -8.67539e-007 -8.39554e-007 -8.39554e-007 -1.67911e-006 -8.11569e-007 -8.39554e-007 -8.67539e-007 -8.67539e-007 -8.39554e-007 -8.39554e-007 -8.39554e-007 -1.67911e-006 -8.67539e-007 -8.67539e-007 -8.39554e-007 -8.39554e-007 -8.39554e-007 -8.39554e-007 -8.39554e-007 -8.67539e-007 -8.67539e-007 -8.39554e-007 -8.39554e-007 -8.39554e-007 -8.39554e-007 -8.39554e-007 -8.39554e-007 -8.67539e-007 -8.67539e-007 -8.11569e-007 -8.39554e-007 -8.67539e-007 -8.39554e-007 -8.39554e-007 -8.39554e-007 -8.39554e-007 -8.39554e-007 -8.67539e-007 -8.67539e-007 -8.11569e-007 -8.39554e-007 -8.67539e-007 -8.39554e-007 -8.39554e-007 -8.39554e-007 -8.39554e-007 -8.39554e-007 -8.67539e-007 -8.67539e-007 -8.39554e-007 -8.39554e-007 -8.39554e-007 -8.39554e-007 -8.39554e-007 -1.70709e-006 -8.67539e-007 -8.39554e-007 -8.39554e-007 -8.39554e-007 -8.39554e-007 -8.39554e-007 -8.39554e-007 -1.70709e-006 0 0 -1.70709e-006 -1.70709e-006 -8.39554e-007 -8.39554e-007 -8.39554e-007 -1.67911e-006 -8.39554e-007 -8.39554e-007 -8.39554e-007 -8.39554e-007 -8.67539e-007 -1.70709e-006 -8.39554e-007 -8.39554e-007 -8.39554e-007 -8.39554e-007 -8.39554e-007 -1.70709e-006 -8.67539e-007 -8.39554e-007 -8.39554e-007 -1.70709e-006 -8.39554e-007 -1.67911e-006 -8.39554e-007 -8.39554e-007 -8.67539e-007 -1.70709e-006 -8.39554e-007 -8.39554e-007 -8.39554e-007 -8.39554e-007 -8.67539e-007 -1.67911e-006 -8.39554e-007 -1.70709e-006 -8.39554e-007 -1.67911e-006 -8.39554e-007 -8.67539e-007 -8.67539e-007 -1.67911e-006 -8.11569e-007 -1.70709e-006 -8.39554e-007 -1.67911e-006 -8.67539e-007 -1.67911e-006 -8.39554e-007 -1.70709e-006 -8.39554e-007 -2.51866e-006 -8.67539e-007 -1.70709e-006 -8.39554e-007 -1.67911e-006 -8.39554e-007 -1.70709e-006 -8.39554e-007 -1.70709e-006 -8.67539e-007 -2.51866e-006 -8.39554e-007 -1.67911e-006 -8.39554e-007 -2.54665e-006 -8.39554e-007 -2.54665e-006 -8.67539e-007 -2.54665e-006 -8.11569e-007 -2.51866e-006 -8.67539e-007 -2.54665e-006 -8.39554e-007 -2.51866e-006 -8.39554e-007 -3.3862e-006 -8.39554e-007 -3.3862e-006 -8.67539e-007 -1.70709e-006 -8.39554e-007 0 -8.39554e-007 -8.39554e-007 -5.93285e-006 -8.67539e-007 -2.54665e-006 -8.39554e-007 -3.35822e-006 -8.39554e-007 -1.70709e-006 -8.39554e-007 -1.67911e-006 -8.39554e-007 -1.70709e-006 -8.39554e-007 -1.67911e-006 -8.39554e-007 -1.70709e-006 -8.67539e-007 -1.67911e-006 -8.39554e-007 -8.39554e-007 -8.39554e-007 -8.67539e-007 -8.67539e-007 -8.11569e-007 -8.39554e-007 -8.67539e-007 -8.39554e-007 -8.39554e-007 -8.39554e-007 -1.70709e-006 -1.70709e-006 -8.39554e-007 -8.39554e-007 -8.39554e-007 -8.39554e-007 -8.39554e-007 -8.67539e-007 -8.67539e-007 -1.65112e-006 -8.39554e-007 -1.70709e-006 -8.39554e-007 -8.39554e-007 -8.39554e-007 -1.70709e-006 -8.67539e-007 -1.67911e-006 -8.39554e-007 -1.70709e-006 -8.39554e-007 -2.54665e-006 -8.39554e-007 -4.22576e-006 -8.39554e-007 -4.22576e-006 -8.67539e-007 -7.61196e-006 0 -5.90486e-006 8.67539e-007zm-6.5989e-005 0.000455934l8.39554e-007 2.54665e-006 8.39554e-007 2.51866e-006 8.39554e-007 1.70709e-006 8.67539e-007 2.54665e-006 8.39554e-007 1.67911e-006 8.39554e-007 8.39554e-007 8.67539e-007 1.67911e-006 8.39554e-007 1.70709e-006 8.39554e-007 1.67911e-006 8.39554e-007 1.70709e-006 8.67539e-007 8.39554e-007 8.11569e-007 1.70709e-006 8.39554e-007 8.39554e-007 8.67539e-007 1.70709e-006 8.39554e-007 8.39554e-007 8.39554e-007 8.11569e-007 8.67539e-007 8.67539e-007 8.39554e-007 1.67911e-006 8.39554e-007 8.39554e-007 8.39554e-007 8.67539e-007 8.67539e-007 8.39554e-007 8.39554e-007 8.39554e-007 8.39554e-007 8.39554e-007 8.39554e-007 8.67539e-007 8.67539e-007 8.39554e-007 8.39554e-007 8.39554e-007 8.39554e-007 8.67539e-007 8.39554e-007 8.39554e-007 1.67911e-006 8.39554e-007 8.67539e-007 8.39554e-007 8.39554e-007 8.39554e-007 8.39554e-007 8.67539e-007 1.70709e-006 8.11569e-007 8.39554e-007 8.67539e-007 1.67911e-006 8.39554e-007 1.70709e-006 8.39554e-007 8.39554e-007 8.67539e-007 8.67539e-007 8.39554e-007 2.51866e-006 8.39554e-007 8.39554e-007 8.39554e-007 1.67911e-006 8.67539e-007 1.70709e-006 8.39554e-007 2.54665e-006 8.39554e-007 1.67911e-006 8.39554e-007 2.54665e-006 8.67539e-007 2.54665e-006 8.39554e-007 2.51866e-006 8.39554e-007 3.3862e-006 8.39554e-007 4.22576e-006 8.39554e-007 6.7724e-006 8.67539e-007 1.35448e-005 0 6.7724e-006 -8.67539e-007 3.3862e-006 -8.39554e-007 4.22576e-006 -8.39554e-007 2.51866e-006 -8.39554e-007 2.54665e-006 -8.39554e-007 1.67911e-006 -8.67539e-007 2.54665e-006 -8.39554e-007 1.70709e-006 -8.39554e-007 1.67911e-006 -8.39554e-007 1.70709e-006 -8.67539e-007 1.67911e-006 -8.39554e-007 1.67911e-006 -8.39554e-007 1.70709e-006 -8.39554e-007 8.39554e-007 -8.67539e-007 1.70709e-006 -8.39554e-007 8.39554e-007 -8.39554e-007 1.67911e-006 -8.67539e-007 8.67539e-007 -8.11569e-007 8.39554e-007 -8.67539e-007 8.39554e-007 -8.39554e-007 1.70709e-006 -8.39554e-007 8.11569e-007 -8.39554e-007 8.67539e-007 -8.39554e-007 8.39554e-007 -8.67539e-007 8.39554e-007 -8.39554e-007 8.39554e-007 -8.39554e-007 8.67539e-007 -8.67539e-007 8.39554e-007 -8.39554e-007 8.39554e-007 -8.39554e-007 8.39554e-007 -8.39554e-007 8.67539e-007 -8.67539e-007 8.39554e-007 -8.39554e-007 8.39554e-007 -8.39554e-007 8.39554e-007 -1.70709e-006 8.67539e-007 -8.11569e-007 8.39554e-007 -8.39554e-007 8.39554e-007 -8.67539e-007 8.67539e-007 -1.67911e-006 8.39554e-007 -8.67539e-007 8.11569e-007 -1.67911e-006 8.67539e-007 -1.70709e-006 8.39554e-007 -8.39554e-007 8.39554e-007 -1.67911e-006 8.39554e-007 -8.67539e-007 8.67539e-007 -2.51866e-006 8.39554e-007 -1.67911e-006 8.39554e-007 -1.70709e-006 8.67539e-007 -1.67911e-006 8.39554e-007 -2.54665e-006 8.39554e-007 -2.54665e-006 8.39554e-007 -1.70709e-006 0 -8.39554e-007 -0.00014972 -8.11569e-007 -8.39554e-007 0 0 2.51866e-006z"/>
 </g>
</svg>
