<?xml version="1.0" encoding="UTF-8"?>
<!DOCTYPE svg PUBLIC "-//W3C//DTD SVG 1.1//EN" "http://www.w3.org/Graphics/SVG/1.1/DTD/svg11.dtd">
<!-- Creator: CorelDRAW -->
<svg xmlns="http://www.w3.org/2000/svg" xml:space="preserve" width="0.15415in" height="0.0826575in" style="shape-rendering:geometricPrecision; text-rendering:geometricPrecision; image-rendering:optimizeQuality; fill-rule:evenodd; clip-rule:evenodd"
viewBox="0 0 0.0150277 0.00805809"
 xmlns:xlink="http://www.w3.org/1999/xlink">
 <defs>
  <style type="text/css">
   <![CDATA[
    .fil0 {fill:white;fill-rule:nonzero}
   ]]>
  </style>
 </defs>
 <g id="图层_x0020_18">
  <metadata id="CorelCorpID_0Corel-Layer"/>
  <path class="fil0" d="M0.014011 0.00402847c-0.00102093,-0.00107889 -0.00200426,-0.00188029 -0.0030225,-0.00242031 -0.000420656,-0.000223377 -0.000848988,-0.000401849 -0.00128922,-0.000537334 0.000147383,0.000109002 0.000285938,0.000228751 0.000415282,0.000357711 0.000665143,0.000665143 0.00107735,0.00158514 0.00107735,0.00260031 0,0.00101556 -0.000412212,0.00193517 -0.00107735,0.0026007 -0.000129344,0.00012896 -0.000267132,0.000248325 -0.000414515,0.000356943 0.00044023,-0.000135485 0.000867794,-0.00031434 0.00128845,-0.00053695 0.00101825,-0.000540021 0.00200157,-0.00134218 0.0030225,-0.00242107zm-0.00649714 -0.00221919c0.00122551,0 0.00221957,0.000994068 0.00221957,0.00221957 0,0.00122589 -0.000994068,0.00221957 -0.00221957,0.00221957 -0.00122551,0 -0.00221957,-0.000993684 -0.00221957,-0.00221957 0,-0.00122551 0.000994068,-0.00221957 0.00221957,-0.00221957zm-0.00218541 -0.00073845c-0.00044023,0.000135485 -0.000868178,0.000313957 -0.00128883,0.000537334 -0.00101863,0.000540021 -0.00200157,0.00134142 -0.00302289,0.00242031 0.00102132,0.00107889 0.00200426,0.00188105 0.00302289,0.00242107 0.000420656,0.00022261 0.000847836,0.000401465 0.00128807,0.00053695 -0.000146999,-0.000108618 -0.000285171,-0.000227983 -0.000414131,-0.000356943 -0.000665527,-0.000665527 -0.00107735,-0.00158514 -0.00107735,-0.0026007 0,-0.00101518 0.000411828,-0.00193517 0.00107735,-0.00260031 0.00012896,-0.00012896 0.000267899,-0.000248709 0.000414899,-0.000357711zm0.0042553 0.000888136c-0.000529274,-0.000529274 -0.00126158,-0.000857432 -0.00206989,-0.000857432 -0.000808304,0 -0.00154023,0.000328158 -0.00206989,0.000857432 -0.000529274,0.000529658 -0.000857432,0.00126158 -0.000857432,0.00206989 0,0.000808304 0.000328158,0.00154061 0.000857432,0.00206989 0.000529658,0.000529658 0.00126158,0.000857432 0.00206989,0.000857432 0.000808304,0 0.00154061,-0.000327774 0.00206989,-0.000857432 0.000529658,-0.000529274 0.000857432,-0.00126158 0.000857432,-0.00206989 0,-0.000808304 -0.000327774,-0.00154023 -0.000857432,-0.00206989zm0.00175363 -0.00101326c0.00117331,0.000622156 0.00229365,0.00155827 0.00345928,0.0028306l0.000231054 0.000252163 -0.000231054 0.000252163c-0.00116563,0.00127271 -0.00228597,0.00220921 -0.00345928,0.00283137 -0.00118828,0.000630216 -0.00242952,0.000938415 -0.00382198,0.000946092l-3.07048e-006 0c-0.00139246,-7.6762e-006 -0.00263332,-0.000315876 -0.00382198,-0.000946092 -0.00117331,-0.000622156 -0.00229326,-0.00155865 -0.00345928,-0.00283137l-0.000231054 -0.000252163 0.000231054 -0.000252163c0.00116601,-0.00127233 0.00228636,-0.00220883 0.00345928,-0.0028306 0.00118866,-0.000630216 0.00242952,-0.000938799 0.00382198,-0.000945708l3.07048e-006 0c0.00139246,6.90858e-006 0.0026337,0.000315492 0.00382198,0.000945708z"/>
 </g>
</svg>
