<?xml version="1.0" encoding="UTF-8"?>
<!DOCTYPE svg PUBLIC "-//W3C//DTD SVG 1.1//EN" "http://www.w3.org/Graphics/SVG/1.1/DTD/svg11.dtd">
<!-- Creator: CorelDRAW -->
<svg xmlns="http://www.w3.org/2000/svg" xml:space="preserve" width="0.051315in" height="0.0808898in" style="shape-rendering:geometricPrecision; text-rendering:geometricPrecision; image-rendering:optimizeQuality; fill-rule:evenodd; clip-rule:evenodd"
viewBox="0 0 0.000323007 0.000509168"
 xmlns:xlink="http://www.w3.org/1999/xlink">
 <defs>
  <style type="text/css">
   <![CDATA[
    .fil0 {fill:#C2C1C1;fill-rule:nonzero}
   ]]>
  </style>
 </defs>
 <g id="图层_x0020_18">
  <metadata id="CorelCorpID_0Corel-Layer"/>
  <path class="fil0" d="M0.000130427 0.000385854c-2.23037e-007,-8.17801e-006 -3.46946e-007,-1.43487e-005 -3.46946e-007,-1.84377e-005 0,-2.41128e-005 3.37033e-006,-4.49791e-005 1.02597e-005,-6.24751e-005 5.00594e-006,-1.31592e-005 1.306e-005,-2.6467e-005 2.42367e-005,-3.99731e-005 8.17801e-006,-9.78884e-006 2.29728e-005,-2.40136e-005 4.41861e-005,-4.27735e-005 2.13372e-005,-1.88838e-005 3.50911e-005,-3.38025e-005 4.15096e-005,-4.50039e-005 6.39372e-006,-1.10775e-005 9.54102e-006,-2.33197e-005 9.54102e-006,-3.64789e-005 0,-2.39145e-005 -9.31798e-006,-4.488e-005 -2.79787e-005,-6.30698e-005 -1.8636e-005,-1.8066e-005 -4.16087e-005,-2.71609e-005 -6.86458e-005,-2.71609e-005 -2.62192e-005,0 -4.80273e-005,8.27714e-006 -6.55232e-005,2.46084e-005 -1.75951e-005,1.64304e-005 -2.90196e-005,4.20796e-005 -3.44964e-005,7.69229e-005l-6.3169e-005 -7.58325e-006c5.69983e-006,-4.66147e-005 2.26011e-005,-8.23997e-005 5.07037e-005,-0.000107231 2.80779e-005,-2.48314e-005 6.52754e-005,-3.71976e-005 0.000111444,-3.71976e-005 4.89442e-005,0 8.80004e-005,1.33079e-005 0.000117144,3.99979e-005 2.91435e-005,2.65662e-005 4.37152e-005,5.8733e-005 4.37152e-005,9.66245e-005 0,2.1808e-005 -5.12985e-006,4.19557e-005 -1.53895e-005,6.03934e-005 -1.02597e-005,1.84129e-005 -3.02091e-005,4.09149e-005 -6.00465e-005,6.7258e-005 -2.00485e-005,1.78182e-005 -3.30838e-005,3.08782e-005 -3.92793e-005,3.92793e-005 -6.17068e-006,8.50018e-006 -1.07305e-005,1.81899e-005 -1.363e-005,2.90196e-005 -3.02339e-006,1.09536e-005 -4.65899e-006,2.86726e-005 -5.12985e-006,5.3281e-005l-5.91047e-005 0zm-3.71728e-006 0.000123315l0 -7.00583e-005 6.99344e-005 0 0 7.00583e-005 -6.99344e-005 0z"/>
 </g>
</svg>
