<?xml version="1.0" encoding="UTF-8"?>
<!DOCTYPE svg PUBLIC "-//W3C//DTD SVG 1.1//EN" "http://www.w3.org/Graphics/SVG/1.1/DTD/svg11.dtd">
<!-- Creator: CorelDRAW -->
<svg xmlns="http://www.w3.org/2000/svg" xml:space="preserve" width="0.178276in" height="0.178276in" style="shape-rendering:geometricPrecision; text-rendering:geometricPrecision; image-rendering:optimizeQuality; fill-rule:evenodd; clip-rule:evenodd"
viewBox="0 0 0.0191546 0.0191546"
 xmlns:xlink="http://www.w3.org/1999/xlink">
 <defs>
  <style type="text/css">
   <![CDATA[
    .fil0 {fill:#969594;fill-rule:nonzero}
   ]]>
  </style>
 </defs>
 <g id="图层_x0020_18">
  <metadata id="CorelCorpID_0Corel-Layer"/>
  <path class="fil0" d="M0.00957731 0c0.0026438,0 0.00503759,0.00107232 0.00677066,0.00280496l1.69203e-006 1.69203e-006c0.00173264,0.00173306 0.00280496,0.00412728 0.00280496,0.00677066 0,0.00264253 -0.00107232,0.00503759 -0.00280496,0.00677066l-1.69203e-006 1.69203e-006c-0.00173306,0.00173264 -0.00412686,0.00280496 -0.00677066,0.00280496 -0.0026438,0 -0.00503759,-0.00107232 -0.00677066,-0.00280496l-1.69203e-006 -1.69203e-006c-0.00173264,-0.00173306 -0.00280496,-0.00412813 -0.00280496,-0.00677066 0,-0.00264337 0.00107232,-0.00503759 0.00280496,-0.00677066l1.69203e-006 -1.69203e-006c0.00173306,-0.00173264 0.00412686,-0.00280496 0.00677066,-0.00280496zm0.00626643 0.00331088c-0.00160362,-0.0016032 -0.00381976,-0.00259515 -0.00626643,-0.00259515 -0.00244667,0 -0.00466281,0.000991952 -0.00626643,0.00259515 -0.0016032,0.00160362 -0.00259515,0.00382018 -0.00259515,0.00626643 0,0.00244667 0.000991952,0.00466281 0.00259515,0.00626643 0.00160362,0.0016032 0.00381976,0.00259515 0.00626643,0.00259515 0.00244667,0 0.00466281,-0.000991952 0.00626643,-0.00259515 0.0016032,-0.00160362 0.00259515,-0.00381976 0.00259515,-0.00626643 0,-0.00244625 -0.000991952,-0.00466281 -0.00259515,-0.00626643z"/>
  <path class="fil0" d="M0.00957731 0.00495003c0.000750838,0 0.0014323,0.000304988 0.00192468,0.000797369 0.000491958,0.000491958 0.000797369,0.001173 0.000797369,0.00192426 0,0.000750838 -0.000304988,0.0014323 -0.000797369,0.00192468l-1.69203e-006 0c-0.000155667,0.000155667 -0.000330369,0.000292721 -0.000520299,0.000407356 0.000847284,0.000573598 0.00174364,0.00176225 0.00265183,0.00386629l-0.000776641 0.000334176c-0.00337391,-0.00781506 -0.0065435,-4.94919e-005 -0.00655238,-2.79185e-005l-0.000780026 -0.00032064c5.4991e-006,-1.39592e-005 0.00109559,-0.00268356 0.00273474,-0.00380326 -0.000222502,-0.000123518 -0.000425968,-0.000277493 -0.000604477,-0.000456002 -0.000492381,-0.000492381 -0.000797369,-0.00117385 -0.000797369,-0.00192468 0,-0.000749992 0.000305411,-0.00143019 0.000797369,-0.00192257 0.000493227,-0.00049365 0.00117427,-0.000799061 0.00192426,-0.000799061zm0.00132655 0.0013955c-0.000339252,-0.000339252 -0.00080879,-0.000549487 -0.00132655,-0.000549487 -0.000518607,0 -0.000988145,0.000209389 -0.00132613,0.000547794 -0.000339252,0.000339252 -0.000549487,0.000809213 -0.000549487,0.00132782 0,0.000517761 0.000210235,0.000987299 0.000549487,0.00132655 0.000338829,0.000338829 0.000808367,0.000549487 0.00132613,0.000549487 0.000518607,0 0.000988145,-0.000209812 0.0013274,-0.00054864l-8.46015e-007 -8.46015e-007c0.000339252,-0.000339252 0.000549487,-0.00080879 0.000549487,-0.00132655 0,-0.000517761 -0.000210658,-0.000987299 -0.000549487,-0.00132613z"/>
 </g>
</svg>
