<?xml version="1.0" encoding="UTF-8"?>
<!DOCTYPE svg PUBLIC "-//W3C//DTD SVG 1.1//EN" "http://www.w3.org/Graphics/SVG/1.1/DTD/svg11.dtd">
<!-- Creator: CorelDRAW -->
<svg xmlns="http://www.w3.org/2000/svg" xml:space="preserve" width="0.09in" height="0.09in" style="shape-rendering:geometricPrecision; text-rendering:geometricPrecision; image-rendering:optimizeQuality; fill-rule:evenodd; clip-rule:evenodd"
viewBox="0 0 0.000928051 0.000928051"
 xmlns:xlink="http://www.w3.org/1999/xlink">
 <defs>
  <style type="text/css">
   <![CDATA[
    .fil0 {fill:#C2C1C1}
    .fil1 {fill:#C2C1C1;fill-rule:nonzero}
   ]]>
  </style>
 </defs>
 <g id="图层_x0020_18">
  <metadata id="CorelCorpID_0Corel-Layer"/>
  <g id="_154495560">
   <path id="_154495128" class="fil0" d="M0.000398786 0l0.000130479 0 0 6.60922e-005c9.05317e-006,1.4615e-006 1.79845e-005,3.24777e-006 2.67941e-005,5.27763e-006l2.52514e-005 -6.10175e-005 0.000120574 4.99345e-005 -2.5292e-005 6.10987e-005c7.71346e-006,4.79046e-006 1.52645e-005,9.86511e-006 2.26532e-005,1.51427e-005l4.67679e-005 -4.67679e-005 9.22773e-005 9.22773e-005 -4.67679e-005 4.67679e-005c5.27763e-006,7.38868e-006 1.03523e-005,1.49398e-005 1.51427e-005,2.26532e-005l6.10987e-005 -2.5292e-005 4.99345e-005 0.000120574 -6.10175e-005 2.5292e-005c2.02986e-006,8.80958e-006 3.81613e-006,1.77004e-005 5.27763e-006,2.67535e-005l6.60922e-005 0 0 0.000130479 -6.60922e-005 0c-1.4615e-006,9.05317e-006 -3.24777e-006,1.79845e-005 -5.27763e-006,2.67941e-005l6.10175e-005 2.52514e-005 -4.99345e-005 0.000120574 -6.10987e-005 -2.5292e-005c-4.79046e-006,7.71346e-006 -9.86511e-006,1.52645e-005 -1.51427e-005,2.26532e-005l4.67679e-005 4.67679e-005 -9.22773e-005 9.22773e-005 -4.67679e-005 -4.67679e-005c-7.38868e-006,5.27763e-006 -1.49398e-005,1.03523e-005 -2.26532e-005,1.51427e-005l2.5292e-005 6.10987e-005 -0.000120574 4.99345e-005 -2.52514e-005 -6.10175e-005c-8.80958e-006,2.07046e-006 -1.7741e-005,3.81613e-006 -2.67941e-005,5.27763e-006l0 6.60922e-005 -0.000130479 0 0 -6.60922e-005c-9.05317e-006,-1.4615e-006 -1.79845e-005,-3.24777e-006 -2.67941e-005,-5.27763e-006l-2.52514e-005 6.10175e-005 -0.000120574 -4.99345e-005 2.5292e-005 -6.10987e-005c-7.71346e-006,-4.79046e-006 -1.52645e-005,-9.86511e-006 -2.26532e-005,-1.51427e-005l-4.67679e-005 4.67679e-005 -9.22773e-005 -9.22773e-005 4.67679e-005 -4.67679e-005c-5.27763e-006,-7.38868e-006 -1.03523e-005,-1.49398e-005 -1.51427e-005,-2.26532e-005l-6.10987e-005 2.5292e-005 -4.99345e-005 -0.000120574 6.10175e-005 -2.52514e-005c-2.07046e-006,-8.80958e-006 -3.81613e-006,-1.7741e-005 -5.27763e-006,-2.67941e-005l-6.60922e-005 0 0 -0.000130479 6.60922e-005 0c1.4615e-006,-9.05317e-006 3.24777e-006,-1.79439e-005 5.27763e-006,-2.67941e-005l-6.10175e-005 -2.52514e-005 4.99345e-005 -0.000120574 6.10987e-005 2.5292e-005c4.79046e-006,-7.71346e-006 9.86511e-006,-1.52645e-005 1.51427e-005,-2.26532e-005l-4.67679e-005 -4.67679e-005 9.22773e-005 -9.22773e-005 4.67679e-005 4.67679e-005c7.38868e-006,-5.27763e-006 1.49398e-005,-1.03523e-005 2.26532e-005,-1.51427e-005l-2.5292e-005 -6.10987e-005 0.000120574 -4.99345e-005 2.5292e-005 6.10175e-005c8.80958e-006,-2.02986e-006 1.7741e-005,-3.81613e-006 2.67535e-005,-5.27763e-006l0 -6.60922e-005zm6.52396e-005 0.000156786c0.000169656,0 0.000307239,0.000137584 0.000307239,0.000307239 0,0.000169656 -0.000137584,0.000307239 -0.000307239,0.000307239 -0.000169656,0 -0.000307239,-0.000137584 -0.000307239,-0.000307239 0,-0.000169656 0.000137584,-0.000307239 0.000307239,-0.000307239z"/>
   <path id="_154495272" class="fil1" d="M0.000464026 0.000242284c6.11393e-005,0 0.000116554,2.48049e-005 0.000156746,6.49555e-005l0 4.05972e-008 4.05972e-008 0c4.01506e-005,4.01912e-005 6.49555e-005,9.56063e-005 6.49555e-005,0.000156746 0,6.11393e-005 -2.48049e-005,0.000116554 -6.49555e-005,0.000156746l-4.05972e-008 0 0 4.05972e-008c-4.01912e-005,4.01506e-005 -9.56063e-005,6.49555e-005 -0.000156746,6.49555e-005 -6.11393e-005,0 -0.000116554,-2.48049e-005 -0.000156746,-6.49555e-005l0 -4.05972e-008 -4.05972e-008 0c-4.01506e-005,-4.01912e-005 -6.49555e-005,-9.56063e-005 -6.49555e-005,-0.000156746 0,-6.11393e-005 2.48049e-005,-0.000116554 6.49555e-005,-0.000156746l4.05972e-008 0 0 -4.05972e-008c4.01912e-005,-4.01506e-005 9.56063e-005,-6.49555e-005 0.000156746,-6.49555e-005zm0.000137015 8.46857e-005c-3.49947e-005,-3.50353e-005 -8.35084e-005,-5.67142e-005 -0.000137015,-5.67142e-005 -5.35071e-005,0 -0.000102021,2.16789e-005 -0.000137015,5.67142e-005l-4.05972e-008 4.05972e-008c-3.50353e-005,3.49947e-005 -5.67142e-005,8.35084e-005 -5.67142e-005,0.000137015 0,5.35071e-005 2.16789e-005,0.000102021 5.67142e-005,0.000137015l4.05972e-008 4.05972e-008c3.49947e-005,3.50353e-005 8.35084e-005,5.67142e-005 0.000137015,5.67142e-005 5.35071e-005,0 0.000102021,-2.16789e-005 0.000137015,-5.67142e-005l4.05972e-008 -4.05972e-008c3.50353e-005,-3.49947e-005 5.67142e-005,-8.35084e-005 5.67142e-005,-0.000137015 0,-5.35071e-005 -2.16789e-005,-0.000102021 -5.67142e-005,-0.000137015l-4.05972e-008 -4.05972e-008z"/>
  </g>
 </g>
</svg>
