<?xml version="1.0" encoding="UTF-8"?>
<!DOCTYPE svg PUBLIC "-//W3C//DTD SVG 1.1//EN" "http://www.w3.org/Graphics/SVG/1.1/DTD/svg11.dtd">
<!-- Creator: CorelDRAW -->
<svg xmlns="http://www.w3.org/2000/svg" xml:space="preserve" width="0.178276in" height="0.178276in" style="shape-rendering:geometricPrecision; text-rendering:geometricPrecision; image-rendering:optimizeQuality; fill-rule:evenodd; clip-rule:evenodd"
viewBox="0 0 0.0433279 0.0433279"
 xmlns:xlink="http://www.w3.org/1999/xlink">
 <defs>
  <style type="text/css">
   <![CDATA[
    .fil1 {fill:#969594}
    .fil0 {fill:#969594;fill-rule:nonzero}
   ]]>
  </style>
 </defs>
 <g id="图层_x0020_18">
  <metadata id="CorelCorpID_0Corel-Layer"/>
  <path class="fil0" d="M0.0216639 0c0.00598028,0 0.0113951,0.0024256 0.0153153,0.00634484l3.82738e-006 3.82738e-006c0.00391924,0.0039202 0.00634484,0.00933594 0.00634484,0.0153153 0,0.00597741 -0.0024256,0.0113951 -0.00634484,0.0153153l-3.82738e-006 3.82738e-006c-0.0039202,0.00391924 -0.00933498,0.00634484 -0.0153153,0.00634484 -0.00598028,0 -0.0113951,-0.0024256 -0.0153153,-0.00634484l-3.82738e-006 -3.82738e-006c-0.00391924,-0.0039202 -0.00634484,-0.00933785 -0.00634484,-0.0153153 0,-0.00597933 0.0024256,-0.0113951 0.00634484,-0.0153153l3.82738e-006 -3.82738e-006c0.0039202,-0.00391924 0.00933498,-0.00634484 0.0153153,-0.00634484zm0.0141747 0.00748923c-0.0036274,-0.00362644 -0.00864031,-0.00587025 -0.0141747,-0.00587025 -0.00553439,0 -0.0105473,0.0022438 -0.0141747,0.00587025 -0.00186968,0.00187063 -0.00337288,0.00410965 -0.00438905,0.00659841 -0.000954932,0.00233662 -0.0014812,0.00489618 -0.0014812,0.0075763 0,0.00553439 0.0022438,0.0105473 0.00587025,0.0141747 0.0036274,0.00362644 0.00864031,0.00587025 0.0141747,0.00587025 0.00553439,0 0.0105473,-0.0022438 0.0141747,-0.00587025 0.00362644,-0.0036274 0.00587025,-0.00864031 0.00587025,-0.0141747 0,-0.00553344 -0.0022438,-0.0105473 -0.00587025,-0.0141747z"/>
  <path class="fil1" d="M0.0115147 0.0232494l0.00401875 0 0 0.0106296 -0.00401875 0 0 -0.0106296zm0.0162807 -0.00541287l0.00401779 0 0 0.0160425 -0.00401779 0 0 -0.0160425zm-0.00542436 0.00199885l0.00401875 0 0 0.0140436 -0.00401875 0 0 -0.0140436zm-0.00546454 0.00146015l0.00401875 0 0 0.0125835 -0.00401875 0 0 -0.0125835z"/>
  <path class="fil0" d="M0.00739067 0.0169505c1.14821e-005,5.74107e-006 0.00410965,0.00242752 0.00870538,0.000155966 0.00110803,-0.000548272 0.00228016,-0.00130131 0.00349918,-0.00208592 0.00437278,-0.00281313 0.00935125,-0.00601569 0.0159238,-0.00318247l-0.000755908 0.00175677c-0.00564156,-0.0024323 -0.0101636,0.000478423 -0.0141364,0.0030332 -0.00126304,0.000812362 -0.00247536,0.00159219 -0.00368672,0.00219118 -0.00552195,0.00272892 -0.0104851,-0.000201894 -0.0104985,-0.000209549l0.000949191 -0.00165917z"/>
 </g>
</svg>
