<?xml version="1.0" encoding="UTF-8"?>
<!DOCTYPE svg PUBLIC "-//W3C//DTD SVG 1.1//EN" "http://www.w3.org/Graphics/SVG/1.1/DTD/svg11.dtd">
<!-- Creator: CorelDRAW -->
<svg xmlns="http://www.w3.org/2000/svg" xml:space="preserve" width="0.101185in" height="0.119614in" style="shape-rendering:geometricPrecision; text-rendering:geometricPrecision; image-rendering:optimizeQuality; fill-rule:evenodd; clip-rule:evenodd"
viewBox="0 0 0.0015315 0.00181043"
 xmlns:xlink="http://www.w3.org/1999/xlink">
 <defs>
  <style type="text/css">
   <![CDATA[
    .fil0 {fill:white;fill-rule:nonzero}
   ]]>
  </style>
 </defs>
 <g id="图层_x0020_18">
  <metadata id="CorelCorpID_0Corel-Layer"/>
  <path class="fil0" d="M0.000173642 0.000159758l0.000499653 0 0 -0.000159758 0.000184845 0 0 0.000159758 0.000499713 0 5.9589e-005 0 0.000114053 0 0 0.000136757 -0.000114053 0 0 0.00145433 0 5.9589e-005 -5.9589e-005 0 -0.00118421 0 -5.9589e-005 0 0 -5.9589e-005 0 -0.00145433 -0.000114053 0 0 -0.000136757 0.000114053 0 5.9589e-005 0zm0.00112462 0.000136757l-0.000283405 0 0 0.00139474 0.000283405 0 0 -0.00139474zm-0.000420162 0l-0.000251585 0 0 0.00139474 0.000251585 0 0 -0.00139474zm-0.000388341 0l-0.00025653 0 0 0.00139474 0.00025653 0 0 -0.00139474z"/>
 </g>
</svg>
