<?xml version="1.0" encoding="UTF-8"?>
<!DOCTYPE svg PUBLIC "-//W3C//DTD SVG 1.1//EN" "http://www.w3.org/Graphics/SVG/1.1/DTD/svg11.dtd">
<!-- Creator: CorelDRAW -->
<svg xmlns="http://www.w3.org/2000/svg" xml:space="preserve" width="0.212539in" height="0.191811in" style="shape-rendering:geometricPrecision; text-rendering:geometricPrecision; image-rendering:optimizeQuality; fill-rule:evenodd; clip-rule:evenodd"
viewBox="0 0 0.00438724 0.00395937"
 xmlns:xlink="http://www.w3.org/1999/xlink">
 <defs>
  <style type="text/css">
   <![CDATA[
    .fil1 {fill:white}
    .fil0 {fill:url(#id0)}
   ]]>
  </style>
  <linearGradient id="id0" gradientUnits="userSpaceOnUse" x1="0.00441081" y1="0.00159366" x2="-2.36489e-005" y2="0.00236571">
   <stop offset="0" style="stop-color:#2FB1D5"/>
   <stop offset="1" style="stop-color:#3276D9"/>
  </linearGradient>
 </defs>
 <g id="图层_x0020_18">
  <metadata id="CorelCorpID_0Corel-Layer"/>
  <g id="_154494216">
   <path id="_154494840" class="fil0" d="M0.000501097 0l0.00326867 0c0.000142381,0 0.000270378,7.66355e-005 0.00036156,0.000199919 8.59001e-005,0.000116619 0.000139456,0.000276148 0.000139456,0.000450142l0 0.0007397 0 8.02926e-005 -8.02113e-005 0 -0.00115091 0c-0.000113369,0 -0.000217148,5.29053e-005 -0.000292564,0.000137993 -7.77733e-005,8.78505e-005 -0.000126209,0.000209752 -0.000126209,0.000344494 0,0.000134742 4.84356e-005,0.000256644 0.000126209,0.000344576 7.54165e-005,8.50061e-005 0.000179196,0.000138074 0.000292564,0.000138074l0.00115091 0 8.02113e-005 0 0 8.01301e-005 0 0.000793986c0,0.000173994 -5.35555e-005,0.000333523 -0.000139456,0.000450142 -9.11825e-005,0.000123283 -0.000219179,0.000199919 -0.00036156,0.000199919l-0.00326867 0c-0.000142544,0 -0.000270378,-7.66355e-005 -0.00036156,-0.000199919 -8.60626e-005,-0.000116619 -0.000139537,-0.000276148 -0.000139537,-0.000450142l0 -0.00265925c0,-0.000173994 5.34742e-005,-0.000333523 0.000139537,-0.000450142 9.11825e-005,-0.000123283 0.000219017,-0.000199919 0.00036156,-0.000199919zm0.00260341 0.00152271l0.00128273 0 0 0.000859651 -0.00128273 0c-0.000236733,0 -0.000430394,-0.000193417 -0.000430394,-0.000429825l0 0c0,-0.000236327 0.000193661,-0.000429825 0.000430394,-0.000429825zm-0.00243909 -0.00122674l0.00333783 0 -4.87607e-007 -7.3141e-007c-6.14385e-005,-8.3137e-005 -0.000144169,-0.000134742 -0.000232995,-0.000134742l-0.00326867 0c-8.8907e-005,0 -0.000171556,5.16051e-005 -0.000232995,0.000134742 -6.63145e-005,8.98009e-005 -0.000107599,0.000215522 -0.000107599,0.000354815l0 0.00265925c0,0.000139293 4.1284e-005,0.000265014 0.000107599,0.000354815 6.14385e-005,8.3137e-005 0.000144088,0.000134742 0.000232995,0.000134742l0.00326867 0c8.88257e-005,0 0.000171556,-5.16051e-005 0.000232995,-0.000134742 6.62333e-005,-8.98009e-005 0.000107599,-0.000215522 0.000107599,-0.000354815l0 -0.000713694 -0.0010707 0c-0.000160829,0 -0.000306949,-7.37912e-005 -0.000412272,-0.000192605 -0.000102966,-0.000116132 -0.000167005,-0.00027566 -0.000167005,-0.000450467 0,-0.000174726 6.4039e-005,-0.000334254 0.000167005,-0.000450467 0.000105323,-0.000118732 0.000251443,-0.000192605 0.000412272,-0.000192605l0.0010707 0 0 -0.000659407c0,-7.22471e-005 -1.11337e-005,-0.000140918 -3.11256e-005,-0.000202763 -6.58269e-006,1.62536e-006 -1.34905e-005,2.43803e-006 -2.0642e-005,2.43803e-006l-0.00339317 0c-4.55912e-005,0 -8.28119e-005,-3.46201e-005 -8.28119e-005,-7.69606e-005l0 1.62536e-007c0,-4.23405e-005 3.72207e-005,-7.69606e-005 8.28119e-005,-7.69606e-005z"/>
   <path id="_154494240" class="fil1" d="M0.0031189 0.00173401c0.000120601,0 0.000218529,9.79277e-005 0.000218529,0.000218529 0,0.000120683 -9.79277e-005,0.00021861 -0.000218529,0.00021861 -0.000120683,0 -0.00021861,-9.79277e-005 -0.00021861,-0.00021861 0,-0.000120601 9.79277e-005,-0.000218529 0.00021861,-0.000218529z"/>
  </g>
 </g>
</svg>
